<?xml version="1.0" encoding="UTF-8" standalone="no"?>
<!-- Created with Inkscape (http://www.inkscape.org/) -->

<svg
   width="32"
   height="32"
   viewBox="0 0 8.4666666 8.4666666"
   version="1.1"
   id="svg1"
   inkscape:version="1.3 (0e150ed6c4, 2023-07-21)"
   sodipodi:docname="arrow-pixel-lowlights.svg"
   xmlns:inkscape="http://www.inkscape.org/namespaces/inkscape"
   xmlns:sodipodi="http://sodipodi.sourceforge.net/DTD/sodipodi-0.dtd"
   xmlns="http://www.w3.org/2000/svg"
   xmlns:svg="http://www.w3.org/2000/svg">
  <sodipodi:namedview
     id="namedview1"
     pagecolor="#505050"
     bordercolor="#eeeeee"
     borderopacity="1"
     inkscape:showpageshadow="0"
     inkscape:pageopacity="0"
     inkscape:pagecheckerboard="0"
     inkscape:deskcolor="#505050"
     inkscape:document-units="mm"
     showgrid="true"
     inkscape:zoom="22.627417"
     inkscape:cx="15.600543"
     inkscape:cy="13.059378"
     inkscape:window-width="2560"
     inkscape:window-height="1369"
     inkscape:window-x="1912"
     inkscape:window-y="-8"
     inkscape:window-maximized="1"
     inkscape:current-layer="layer7">
    <inkscape:grid
       id="grid1"
       units="px"
       originx="0"
       originy="0"
       spacingx="0.26458333"
       spacingy="0.26458333"
       empcolor="#0099e5"
       empopacity="0.30196078"
       color="#0099e5"
       opacity="0.14901961"
       empspacing="4"
       dotted="false"
       gridanglex="30"
       gridanglez="30"
       visible="true" />
  </sodipodi:namedview>
  <defs
     id="defs1">
    <inkscape:path-effect
       effect="bspline"
       id="path-effect1"
       is_visible="true"
       lpeversion="1.3"
       weight="33.333333"
       steps="2"
       helper_size="0"
       apply_no_weight="true"
       apply_with_weight="true"
       only_selected="false"
       uniform="false" />
  </defs>
  <g
     inkscape:groupmode="layer"
     id="layer3"
     inkscape:label="Line">
    <path
       id="rect95"
       style="fill:#00ffcc;stroke-width:0.264999;stroke-linejoin:round;paint-order:stroke fill markers"
       d="M 0.26458332,4.4979167 H 0.52916664 V 4.7625 H 0.26458332 Z M 6.3499994,5.5562501 H 6.6145827 V 5.8208334 H 6.3499994 Z M 6.6145825,5.2916665 H 6.8791659 V 5.5562498 H 6.6145825 Z M 6.8791661,5.0270834 H 7.1437494 V 5.2916667 H 6.8791661 Z M 7.1437492,4.7624998 H 7.4083326 V 5.0270831 H 7.1437492 Z M 7.4083328,4.4979167 H 7.6729161 V 4.7625 H 7.4083328 Z M 7.6729159,4.2333331 h 0.264584 V 4.4979164 H 7.6729159 Z M 7.9374995,3.9687498 H 8.202083 V 4.2333331 H 7.9374995 Z M 7.6729159,3.7041664 H 7.9374993 V 3.9687497 H 7.6729159 Z M 7.4083328,3.4395831 H 7.6729161 V 3.7041664 H 7.4083328 Z M 7.1437492,3.1749997 H 7.4083326 V 3.439583 H 7.1437492 Z M 6.8791661,2.9104164 H 7.1437494 V 3.1749997 H 6.8791661 Z M 6.6145825,2.6458333 H 6.8791659 V 2.9104166 H 6.6145825 Z M 6.3499994,2.3812499 H 6.6145827 V 2.6458332 H 6.3499994 Z M 0.26458332,2.1166666 H 0.52916664 V 4.7624998 H 0.26458332 Z M 0.52916664,4.4979167 H 6.3499994 V 4.7625 H 0.52916664 Z M 1.3229166,2.1166666 H 1.5874999 V 3.4395832 H 1.3229166 Z m 0,1.3229165 H 6.35 V 3.7041664 H 1.3229166 Z m 5.556249,1.3229172 H 7.143749 V 4.497917 H 6.8791656 Z M 6.3499994,5.2916665 H 6.8791661 V 4.4979166 H 6.3499994 Z m 0,0.2645836 H 6.6145827 V 5.2916668 H 6.3499994 Z M 6.6145825,5.2916665 H 6.8791659 V 5.0270832 H 6.6145825 Z M 6.8791656,5.0270834 H 7.143749 V 4.7625001 H 6.8791656 Z M 7.1437492,4.7625003 H 7.4083326 V 4.497917 H 7.1437492 Z M 6.8791656,3.4395828 H 7.143749 V 3.7041661 H 6.8791656 Z M 6.3499994,2.9104164 H 6.8791661 V 3.7041663 H 6.3499994 Z m 0,-0.2645834 H 6.6145827 V 2.9104163 H 6.3499994 Z M 6.6145825,2.9104164 H 6.8791659 V 3.1749997 H 6.6145825 Z M 6.8791656,3.1749995 H 7.143749 V 3.4395828 H 6.8791656 Z M 7.1437492,3.4395828 H 7.4083326 V 3.7041661 H 7.1437492 Z M 7.6729159,3.9687495 H 7.9374994 V 4.233333 H 7.6729159 Z m 0,0.5291667 H 1.0583334 V 3.7041667 h 6.6145825 z m -6.3499993,0 H 0.5291667 V 2.1166666 H 1.3229166 Z M 7.6729159,4.2333331 H 1.0583334 V 3.9687498 h 6.6145825 z" />
  </g>
  <g
     inkscape:groupmode="layer"
     id="layer7"
     inkscape:label="Lowlights"
     style="display:inline">
    <path
       id="path113"
       style="fill:#005544;stroke-width:0.264999;stroke-linejoin:round;paint-order:stroke fill markers"
       d="M 6.3499996,5.5562498 H 6.614583 V 5.8208331 H 6.3499996 Z M 0.26458332,2.3812499 H 0.52916664 V 4.4979167 H 0.26458332 Z M 7.6729159,4.2333331 H 7.9374993 V 4.4979164 H 7.6729159 Z M 7.4083328,4.4979167 H 7.6729161 V 4.7625 H 7.4083328 Z M 7.1437492,4.7624998 H 7.4083326 V 5.0270831 H 7.1437492 Z M 6.8791661,5.0270834 H 7.1437494 V 5.2916667 H 6.8791661 Z M 6.6145825,5.2916665 H 6.8791659 V 5.5562498 H 6.6145825 Z M 0.26458332,4.4979167 H 6.3499996 V 4.7625 H 0.26458332 Z" />
  </g>
  <g
     inkscape:groupmode="layer"
     id="layer6"
     inkscape:label="Highlights"
     style="display:inline;fill:#ffffff">
    <path
       id="rect105"
       style="stroke-width:0.264999;stroke-linejoin:round;paint-order:stroke fill markers"
       d="M 0.26458332,2.1166666 H 1.3229166 V 2.3812499 H 0.26458332 Z M 7.9374995,3.9687498 H 8.2020828 V 4.2333331 H 7.9374995 Z M 7.6729159,3.7041667 H 7.9374993 V 3.96875 H 7.6729159 Z M 7.4083328,3.4395828 H 7.6729161 V 3.7041661 H 7.4083328 Z M 7.1437492,3.1749997 H 7.4083326 V 3.439583 H 7.1437492 Z M 6.6145825,2.6458333 H 6.8791659 V 2.9104166 H 6.6145825 Z M 6.8791656,2.9104161 H 7.143749 V 3.1749994 H 6.8791656 Z M 6.3499994,2.3812499 H 6.6145827 V 2.6458332 H 6.3499994 Z M 1.3229166,2.1166666 H 1.5874999 V 3.4395832 H 1.3229166 Z m 0,1.3229167 H 6.3499995 V 3.7041666 H 1.3229166 Z" />
  </g>
  <g
     inkscape:groupmode="layer"
     id="layer5"
     inkscape:label="Outline"
     style="display:inline">
    <path
       id="path95"
       style="stroke-width:0.264999;stroke-linejoin:round;paint-order:stroke fill markers"
       d="M 6.3499997,5.8208331 H 6.614583 V 6.0854164 H 6.3499997 Z M 8.202083,3.9687498 H 8.4666663 V 4.233333 H 8.202083 Z M 1.5874999,2.1166666 H 1.8520832 V 3.1749999 H 1.5874999 Z m 0,1.0583333 H 6.0854164 V 3.4395832 H 1.5874999 Z M 6.0854164,2.1166666 H 6.3499997 V 3.4395832 H 6.0854164 Z m 0.264583,2e-7 H 6.6145827 V 2.3812501 H 6.3499994 Z M 6.6145825,2.3812502 H 6.8791659 V 2.6458335 H 6.6145825 Z M 6.8791661,2.6458333 H 7.1437494 V 2.9104166 H 6.8791661 Z M 7.1437492,2.9104166 H 7.4083326 V 3.1749999 H 7.1437492 Z M 7.4083328,3.175 H 7.6729161 V 3.4395833 H 7.4083328 Z M 7.6729159,3.4395833 H 7.9374993 V 3.7041666 H 7.6729159 Z M 7.9297067,3.7041666 H 8.202083 V 3.9687498 H 7.9297067 Z m 0.00779,0.5291662 H 8.202083 V 4.4979161 H 7.9374996 Z M 7.6729165,4.4979164 H 7.9374998 V 4.7624997 H 7.6729165 Z M 7.4083329,4.7624995 H 7.6729163 V 5.0270828 H 7.4083329 Z M 7.1437498,5.0270831 H 7.4083331 V 5.2916664 H 7.1437498 Z M 6.8791662,5.2916662 H 7.1437496 V 5.5562495 H 6.8791662 Z M 6.6145831,5.5562498 H 6.8791664 V 5.8208331 H 6.6145831 Z M 6.0854164,5.0270831 H 6.3499997 V 6.0854164 H 6.0854164 Z M 0.26458332,4.7625001 H 6.3499994 v 0.264583 H 0.26458332 Z M 0,2.1166666 H 0.26458332 V 4.7624998 H 0 Z M 0.26458332,1.8520833 H 1.5875 V 2.1166666 H 0.26458332 Z" />
  </g>
  <g
     inkscape:groupmode="layer"
     id="layer4"
     inkscape:label="Arrowhead" />
</svg>