<?xml version="1.0" encoding="UTF-8" standalone="no"?>
<!-- Created with Inkscape (http://www.inkscape.org/) -->

<svg
   width="31.999998"
   height="31.999998"
   viewBox="0 0 8.4666661 8.4666661"
   version="1.1"
   id="svg1"
   xmlns="http://www.w3.org/2000/svg"
   xmlns:svg="http://www.w3.org/2000/svg">
  <defs
     id="defs1" />
  <g
     id="g247"
     style="display:inline"
     transform="matrix(-1,0,0,1,8.9958325,-1.5875)">
    <g
       id="g235"
       style="display:inline;fill:#2affd5;fill-opacity:1">
      <path
         d="M 5.5562492,2.6458333 V 4.4979166 H 5.2916659 V 4.2333333 3.7041667 H 5.0270825 V 3.4395833 H 4.4979159 V 3.7041667 H 4.2333325 V 4.2333333 4.4979166 H 3.9687492 V 4.2333333 3.7041667 H 3.7041659 V 3.4395833 H 3.1749992 V 3.7041667 H 2.9104159 V 4.2333333 4.4979166 H 3.1749992 V 4.7625 H 3.4395825 V 5.55625 H 1.3229159 V 2.6458333 Z m -3.175,0.79375 H 1.8520826 V 3.7041667 H 1.5874992 V 4.2333333 4.4979166 H 1.8520826 V 4.7625 H 2.3812492 V 4.4979166 H 2.6458326 V 4.2333333 3.7041667 H 2.3812492 Z"
         style="fill:#008066;stroke-width:0.0206375;stroke-linejoin:round;paint-order:stroke fill markers"
         id="path63" />
    </g>
    <g
       id="g238"
       style="display:inline;fill:#00ffcc;fill-opacity:1">
      <path
         d="M 2.3812492,4.4979166 V 4.7625 H 1.8520826 V 4.4979166 Z"
         style="display:inline;fill:#333333;stroke-width:0.0206375;stroke-linejoin:round;paint-order:stroke fill markers"
         id="path62" />
      <path
         d="M 1.8520826,4.2333333 V 4.4979166 H 1.5874992 V 4.2333333 Z"
         style="display:inline;fill:#333333;stroke-width:0.0206375;stroke-linejoin:round;paint-order:stroke fill markers"
         id="path61" />
      <path
         d="M 2.3812492,3.4395833 V 3.7041667 H 2.6458326 V 4.2333333 H 2.3812492 V 4.4979166 H 1.8520826 V 4.2333333 H 1.5874992 V 3.7041667 H 1.8520826 V 3.4395833 Z"
         style="display:inline;stroke-width:0.0206375;stroke-linejoin:round;paint-order:stroke fill markers"
         id="path60" />
      <path
         d="M 2.6458326,4.2333333 V 4.4979166 H 2.3812492 V 4.2333333 Z"
         style="display:inline;fill:#333333;stroke-width:0.0206375;stroke-linejoin:round;paint-order:stroke fill markers"
         id="path59" />
      <path
         d="M 4.4979159,4.2333333 V 4.4979166 H 4.2333325 V 4.2333333 Z"
         style="display:inline;fill:#333333;stroke-width:0.0206375;stroke-linejoin:round;paint-order:stroke fill markers"
         id="path57" />
      <path
         d="M 5.0270825,3.4395833 V 3.7041667 H 5.2916659 V 4.2333333 H 5.0270825 V 4.4979166 H 4.4979159 V 4.2333333 H 4.2333325 V 3.7041667 H 4.4979159 V 3.4395833 Z"
         style="display:inline;stroke-width:0.0206375;stroke-linejoin:round;paint-order:stroke fill markers"
         id="path56" />
      <path
         d="M 5.2916659,4.2333333 V 4.4979166 H 5.0270825 V 4.2333333 Z"
         style="display:inline;fill:#333333;stroke-width:0.0206375;stroke-linejoin:round;paint-order:stroke fill markers"
         id="path55" />
      <path
         d="M 3.7041659,4.4979166 V 4.7625 H 3.4395825 3.1749992 V 4.4979166 Z"
         style="display:inline;fill:#333333;stroke-width:0.0206375;stroke-linejoin:round;paint-order:stroke fill markers"
         id="path54" />
      <path
         d="M 3.1749992,4.2333333 V 4.4979166 H 2.9104159 V 4.2333333 Z"
         style="display:inline;fill:#333333;stroke-width:0.0206375;stroke-linejoin:round;paint-order:stroke fill markers"
         id="path53" />
      <path
         d="M 3.7041659,3.4395833 V 3.7041667 H 3.9687492 V 4.2333333 H 3.7041659 V 4.4979166 H 3.1749992 V 4.2333333 H 2.9104159 V 3.7041667 H 3.1749992 V 3.4395833 Z"
         style="display:inline;stroke-width:0.0206375;stroke-linejoin:round;paint-order:stroke fill markers"
         id="path52" />
      <path
         d="M 3.9687492,4.2333333 V 4.4979166 H 3.7041659 V 4.2333333 Z"
         style="display:inline;fill:#333333;stroke-width:0.0206375;stroke-linejoin:round;paint-order:stroke fill markers"
         id="path51" />
    </g>
    <g
       id="layer15"
       style="display:inline">
      <path
         d="M 3.4395825,5.55625 V 5.8208333 H 2.9104159 V 6.0854166 H 2.6458326 V 6.35 H 2.3812492 V 6.6145833 H 2.1166659 V 6.0854166 5.8208333 h -0.79375 V 5.55625 Z"
         style="fill:#002b22;stroke-width:0.0206375;stroke-linejoin:round;paint-order:stroke fill markers"
         id="path50" />
    </g>
    <g
       id="g246"
       style="display:inline">
      <path
         d="M 2.1166659,6.0854166 V 6.6145833 6.8791666 7.14375 H 1.8520826 V 6.0854166 Z"
         style="display:inline;stroke-width:0.0238301;stroke-linejoin:round;paint-order:stroke fill markers"
         id="path49" />
      <path
         d="M 2.3812492,6.6145833 V 6.8791666 H 2.1166659 V 6.6145833 Z"
         style="display:inline;stroke-width:0.0206375;stroke-linejoin:round;paint-order:stroke fill markers"
         id="path48" />
      <path
         d="M 2.6458326,6.35 V 6.6145833 H 2.3812492 V 6.35 Z"
         style="display:inline;stroke-width:0.0206375;stroke-linejoin:round;paint-order:stroke fill markers"
         id="path47" />
      <path
         d="M 2.9104159,6.0854166 V 6.35 H 2.6458326 V 6.0854166 Z"
         style="display:inline;stroke-width:0.0206375;stroke-linejoin:round;paint-order:stroke fill markers"
         id="path46" />
      <path
         d="M 5.5562492,2.38125 V 2.6458333 H 1.3229159 V 2.38125 Z"
         style="display:inline;stroke-width:0.0220624;stroke-linejoin:round;paint-order:stroke fill markers"
         id="path45" />
      <path
         d="M 5.8208325,2.6458333 V 4.4979166 H 5.5562492 V 2.6458333 Z"
         style="display:inline;stroke-width:0.0238301;stroke-linejoin:round;paint-order:stroke fill markers"
         id="path44" />
      <path
         d="m 1.3229159,2.6458333 v 3.175 H 1.0583326 v -3.175 z"
         style="display:inline;stroke-width:0.0238301;stroke-linejoin:round;paint-order:stroke fill markers"
         id="path43" />
      <path
         d="m 2.1166659,5.8208333 v 0.2645833 h -0.79375 V 5.8208333 Z"
         style="display:inline;stroke-width:0.0252757;stroke-linejoin:round;paint-order:stroke fill markers"
         id="path42" />
      <path
         d="M 3.4395825,5.8208333 V 6.0854166 H 2.9104159 V 5.8208333 Z"
         style="display:inline;stroke-width:0.0246665;stroke-linejoin:round;paint-order:stroke fill markers"
         id="path41" />
    </g>
  </g>
  <g
     id="layer9"
     style="display:inline"
     transform="translate(-0.26458344,0.26458335)">
    <g
       id="layer13"
       style="display:inline">
      <path
         d="M 1.3229168,2.9104166 V 5.8208333 H 5.5562501 V 2.9104166 Z m 0.5291666,0.79375 H 2.3812501 V 3.96875 H 2.6458334 V 4.4979166 4.7624999 H 2.3812501 V 5.0270833 H 1.8520834 V 4.7624999 H 1.5875001 V 4.4979166 3.96875 h 0.2645833 z m 1.3229167,0 H 3.7041667 V 3.96875 H 3.9687501 V 4.4979166 4.7624999 H 3.7041667 V 5.0270833 H 3.1750001 V 4.7624999 H 2.9104168 V 4.4979166 3.96875 h 0.2645833 z m 1.3229166,0 H 5.0270834 V 3.96875 H 5.2916667 V 4.4979166 4.7624999 H 5.0270834 V 5.0270833 H 4.4979167 V 4.7624999 H 4.2333334 V 4.4979166 3.96875 h 0.2645833 z"
         style="fill:#00ffcc;stroke-width:0.0206375;stroke-linejoin:round;paint-order:stroke fill markers"
         id="path40" />
    </g>
    <g
       id="layer10"
       style="display:inline;fill:#008066;fill-opacity:1"
       transform="translate(1.3368141e-7,-0.26458333)">
      <path
         d="M 4.4979166,3.9687499 V 4.2333333 H 4.2333333 V 4.7624999 H 4.4979166 V 5.0270833 H 5.0270833 V 4.7624999 H 5.2916666 V 4.2333333 H 5.0270833 V 3.9687499 Z"
         style="display:inline;stroke-width:0.0206375;stroke-linejoin:round;paint-order:stroke fill markers"
         id="path39" />
      <path
         d="M 4.2333333,4.7624999 V 5.0270833 H 4.4979166 V 4.7624999 Z"
         style="fill:#333333;stroke-width:0.0206375;stroke-linejoin:round;paint-order:stroke fill markers"
         id="path38" />
      <path
         d="M 5.0270833,4.7624999 V 5.0270833 H 5.2916666 V 4.7624999 Z"
         style="fill:#333333;stroke-width:0.0206375;stroke-linejoin:round;paint-order:stroke fill markers"
         id="path37" />
      <path
         d="M 4.4979166,5.0270833 V 5.2916666 H 5.0270833 V 5.0270833 Z"
         style="fill:#333333;stroke-width:0.0206375;stroke-linejoin:round;paint-order:stroke fill markers"
         id="path36" />
      <path
         d="M 1.8520833,3.9687499 V 4.2333333 H 1.5875 V 4.7624999 H 1.8520833 V 5.0270833 H 2.38125 V 4.7624999 H 2.6458333 V 4.2333333 H 2.38125 V 3.9687499 Z"
         style="display:inline;stroke-width:0.0206375;stroke-linejoin:round;paint-order:stroke fill markers"
         id="path35" />
      <path
         d="M 1.5875,4.7624999 V 5.0270833 H 1.8520833 V 4.7624999 Z"
         style="fill:#333333;stroke-width:0.0206375;stroke-linejoin:round;paint-order:stroke fill markers"
         id="path34" />
      <path
         d="M 2.38125,4.7624999 V 5.0270833 H 2.6458333 V 4.7624999 Z"
         style="fill:#333333;stroke-width:0.0206375;stroke-linejoin:round;paint-order:stroke fill markers"
         id="path33" />
      <path
         d="M 1.8520833,5.0270833 V 5.2916666 H 2.38125 V 5.0270833 Z"
         style="fill:#333333;stroke-width:0.0206375;stroke-linejoin:round;paint-order:stroke fill markers"
         id="path32" />
      <path
         d="M 3.175,3.9687499 V 4.2333333 H 2.9104166 V 4.7624999 H 3.175 V 5.0270833 H 3.7041666 V 4.7624999 H 3.9687499 V 4.2333333 H 3.7041666 V 3.9687499 Z"
         style="display:inline;stroke-width:0.0206375;stroke-linejoin:round;paint-order:stroke fill markers"
         id="path31" />
      <path
         d="M 2.9104166,4.7624999 V 5.0270833 H 3.175 V 4.7624999 Z"
         style="fill:#333333;stroke-width:0.0206375;stroke-linejoin:round;paint-order:stroke fill markers"
         id="path30" />
      <path
         d="M 3.7041666,4.7624999 V 5.0270833 H 3.9687499 V 4.7624999 Z"
         style="fill:#333333;stroke-width:0.0206375;stroke-linejoin:round;paint-order:stroke fill markers"
         id="path29" />
      <path
         d="M 3.175,5.0270833 V 5.2916666 H 3.7041666 V 5.0270833 Z"
         style="fill:#333333;stroke-width:0.0206375;stroke-linejoin:round;paint-order:stroke fill markers"
         id="path28" />
    </g>
    <g
       id="layer14"
       style="display:inline">
      <path
         d="m 1.3229168,5.8208333 v 0.2645833 h 0.79375 V 6.3499999 6.8791666 H 2.3812501 V 6.6145833 H 2.6458334 V 6.3499999 H 2.9104168 V 6.0854166 H 5.5562501 V 5.8208333 Z"
         style="fill:#008066;stroke-width:0.0206375;stroke-linejoin:round;paint-order:stroke fill markers"
         id="path27" />
    </g>
    <g
       id="layer11"
       style="display:inline">
      <path
         d="M 1.8520834,6.3499999 V 7.4083333 H 2.1166668 V 7.1437499 6.8791666 6.3499999 Z"
         style="display:inline;stroke-width:0.0238301;stroke-linejoin:round;paint-order:stroke fill markers"
         id="path26" />
      <path
         d="M 2.1166668,6.8791666 V 7.1437499 H 2.3812501 V 6.8791666 Z"
         style="display:inline;stroke-width:0.0206375;stroke-linejoin:round;paint-order:stroke fill markers"
         id="path25" />
      <path
         d="M 2.3812501,6.6145833 V 6.8791666 H 2.6458334 V 6.6145833 Z"
         style="display:inline;stroke-width:0.0206375;stroke-linejoin:round;paint-order:stroke fill markers"
         id="path24" />
      <path
         d="M 2.6458334,6.3499999 V 6.6145833 H 2.9104168 V 6.3499999 Z"
         style="display:inline;stroke-width:0.0206375;stroke-linejoin:round;paint-order:stroke fill markers"
         id="path23" />
      <path
         d="M 1.3229168,2.6458333 V 2.9104166 H 5.5562501 V 2.6458333 Z"
         style="display:inline;stroke-width:0.0220624;stroke-linejoin:round;paint-order:stroke fill markers"
         id="path22" />
      <path
         d="m 5.5562501,2.9104166 v 3.175 h 0.2645833 v -3.175 z"
         style="display:inline;stroke-width:0.0238301;stroke-linejoin:round;paint-order:stroke fill markers"
         id="path21" />
      <path
         d="m 1.0583334,2.9104166 v 3.175 h 0.2645834 v -3.175 z"
         style="display:inline;stroke-width:0.0238301;stroke-linejoin:round;paint-order:stroke fill markers"
         id="path20" />
      <path
         d="m 1.3229168,6.0854166 v 0.2645833 h 0.79375 V 6.0854166 Z"
         style="display:inline;stroke-width:0.0252757;stroke-linejoin:round;paint-order:stroke fill markers"
         id="path19" />
      <path
         d="M 2.9104168,6.0854166 V 6.3499999 H 5.5562501 V 6.0854166 Z"
         style="display:inline;stroke-width:0.0246665;stroke-linejoin:round;paint-order:stroke fill markers"
         id="path18" />
    </g>
  </g>
</svg>