<?xml version="1.0" encoding="UTF-8" standalone="no"?>
<!-- Created with Inkscape (http://www.inkscape.org/) -->

<svg
   width="32"
   height="32"
   viewBox="0 0 8.4666666 8.4666666"
   version="1.1"
   id="svg1"
   inkscape:version="1.3 (0e150ed6c4, 2023-07-21)"
   sodipodi:docname="pixel-computer-32.svg"
   xmlns:inkscape="http://www.inkscape.org/namespaces/inkscape"
   xmlns:sodipodi="http://sodipodi.sourceforge.net/DTD/sodipodi-0.dtd"
   xmlns="http://www.w3.org/2000/svg"
   xmlns:svg="http://www.w3.org/2000/svg">
  <sodipodi:namedview
     id="namedview1"
     pagecolor="#505050"
     bordercolor="#eeeeee"
     borderopacity="1"
     inkscape:showpageshadow="0"
     inkscape:pageopacity="0"
     inkscape:pagecheckerboard="true"
     inkscape:deskcolor="#505050"
     inkscape:document-units="mm"
     showgrid="true"
     shape-rendering="crispEdges"
     inkscape:zoom="22.627417"
     inkscape:cx="15.711029"
     inkscape:cy="16.46233"
     inkscape:window-width="2560"
     inkscape:window-height="1369"
     inkscape:window-x="1912"
     inkscape:window-y="-8"
     inkscape:window-maximized="1"
     inkscape:current-layer="layer1">
    <inkscape:grid
       id="grid1"
       units="px"
       originx="0"
       originy="0"
       spacingx="0.26458333"
       spacingy="0.26458333"
       empcolor="#0099e5"
       empopacity="0.30196078"
       color="#0099e5"
       opacity="0.14901961"
       empspacing="0"
       dotted="false"
       gridanglex="30"
       gridanglez="30"
       visible="true" />
  </sodipodi:namedview>
  <defs
     id="defs1">
    <inkscape:path-effect
       effect="bspline"
       id="path-effect7"
       is_visible="true"
       lpeversion="1.3"
       weight="33.333333"
       steps="2"
       helper_size="0"
       apply_no_weight="true"
       apply_with_weight="true"
       only_selected="false"
       uniform="false" />
    <inkscape:path-effect
       effect="bspline"
       id="path-effect1"
       is_visible="true"
       lpeversion="1.3"
       weight="33.333333"
       steps="2"
       helper_size="0"
       apply_no_weight="true"
       apply_with_weight="true"
       only_selected="false"
       uniform="false" />
  </defs>
  <g
     inkscape:label="Layer 1"
     inkscape:groupmode="layer"
     id="layer1">
    <path
       d="m 1.8520833,1.8520833 v 2.38125 h 1.5875 V 3.96875 3.7041667 h -0.79375 V 3.4395833 2.6458333 2.38125 h 1.5875 0.2645834 V 2.9104167 H 5.0270833 5.2916667 V 3.96875 4.2333333 h 0.5291666 v -2.38125 z M 2.1166667,2.1166667 H 2.3910685 V 2.6458333 H 2.1166667 Z"
       style="fill:#0023ff;stroke-width:0.264583;stroke-linejoin:bevel"
       id="path172" />
    <path
       d="M 0.52916667,8.2020833 V 8.4666667 H 7.4083333 V 8.2020833 Z"
       style="stroke-width:0.309507;stroke-linejoin:bevel"
       id="path171" />
    <path
       d="M 0.26458333,7.9375 V 8.2020833 H 7.4083333 V 7.9375 H 0.52916667 Z"
       style="fill:#4d4d4d;stroke-width:0.269623;stroke-linejoin:bevel"
       id="path170" />
    <path
       d="M 0,6.0854167 V 7.9375 H 0.26458333 V 6.35 6.0854167 Z"
       style="fill:#4d4d4d;stroke-width:0.70002;stroke-linejoin:bevel"
       id="path169" />
    <path
       d="M 0.26458333,6.35 V 7.9375 H 0.52916667 V 6.35 Z"
       style="fill:#ffffff;stroke-width:0.648093;stroke-linejoin:bevel"
       id="path168" />
    <path
       d="M 7.4083333,7.9375 V 8.2020833 H 7.6729167 V 7.9375 Z"
       style="stroke-width:0.264583;stroke-linejoin:bevel"
       id="path167" />
    <path
       d="M 7.6729167,7.6729167 V 7.9375 H 7.9375 V 7.6729167 Z"
       style="stroke-width:0.264583;stroke-linejoin:bevel"
       id="path166" />
    <path
       d="M 7.9375,7.4083333 V 7.6729167 H 8.2020833 V 7.4083333 Z"
       style="stroke-width:0.264583;stroke-linejoin:bevel"
       id="path165" />
    <path
       d="M 8.2020833,7.14375 V 7.4083333 H 8.4666667 V 7.14375 Z"
       style="stroke-width:0.264583;stroke-linejoin:bevel"
       id="path164" />
    <path
       d="M 7.14375,6.6145833 V 7.9375 H 7.6729167 V 7.6729167 6.6145833 Z"
       style="fill:#4d4d4d;stroke-width:0.373049;stroke-linejoin:bevel"
       id="path163" />
    <path
       d="M 8.2020833,5.2916667 V 7.14375 H 8.4666667 V 5.2916667 Z"
       style="stroke-width:0.313059;stroke-linejoin:bevel"
       id="path162" />
    <path
       d="M 0.52916667,6.35 V 7.9375 H 7.14375 V 6.6145833 6.35 Z M 4.2291992,6.6145833 H 6.6145833 V 6.8791667 7.14375 h -0.79375 V 7.4083333 H 5.55625 V 7.14375 H 4.2333333 V 6.8791667 h -0.00413 z m -3.175,0.2645834 H 1.5916341 V 7.14375 7.4083333 H 1.0541992 V 7.14375 Z"
       style="fill:#999999;stroke-width:0.282046;stroke-linejoin:bevel"
       id="path161" />
    <path
       d="M 1.0541992,7.14375 V 7.4083333 H 1.5916341 V 7.14375 Z"
       style="fill:#008000;stroke-width:0.264583;stroke-linejoin:bevel"
       id="path160" />
    <path
       d="M 1.0541992,6.8791667 V 7.14375 H 1.5916341 V 6.8791667 Z"
       style="fill:#00ff00;stroke-width:0.264583;stroke-linejoin:bevel"
       id="path159" />
    <path
       d="M 0.26458333,6.0854167 V 6.35 H 7.14375 V 6.0854167 Z"
       style="fill:#ffffff;stroke-width:0.28131;stroke-linejoin:bevel"
       id="path158" />
    <path
       d="M 4.2333333,6.8791667 V 7.14375 H 5.55625 5.8208333 6.6145833 V 6.8791667 Z"
       style="stroke-width:0.268817;stroke-linejoin:bevel"
       id="path157" />
    <path
       d="M 4.2291992,6.6145833 V 6.8791667 H 6.6145833 V 6.6145833 Z"
       style="fill:#4d4d4d;stroke-width:0.26905;stroke-linejoin:bevel"
       id="path156" />
    <path
       d="M 5.55625,7.14375 V 7.4083333 H 5.8208333 V 7.14375 Z"
       style="fill:#4d4d4d;stroke-width:0.263439;stroke-linejoin:bevel"
       id="path155" />
    <path
       d="M 0.26458333,5.817216 V 6.0854167 H 7.14375 V 5.8208333 5.817216 H 6.8791667 v 0.00362 H 0.79375 v -0.00362 z"
       style="fill:#4d4d4d;stroke-width:0.550773;stroke-linejoin:bevel"
       id="path154" />
    <path
       d="M 7.14375,5.8208333 V 6.0854167 H 7.4083333 V 5.8208333 Z"
       style="fill:#999999;stroke-width:0.264583;stroke-linejoin:bevel"
       id="path153" />
    <path
       d="m 7.4083333,5.55625 v 0.260966 0.00362 H 7.6729167 V 5.55625 Z"
       style="fill:#999999;stroke-width:0.264583;stroke-linejoin:bevel"
       id="path152" />
    <path
       d="M 7.6729167,5.2916667 V 5.55625 H 7.9375 V 5.2916667 Z"
       style="fill:#999999;stroke-width:0.264583;stroke-linejoin:bevel"
       id="path151" />
    <path
       d="m 7.9375,5.0270833 v 0.2645834 0.2645833 0.5291667 0.5291666 0.79375 h 0.2645833 v -2.38125 z"
       style="fill:#4d4d4d;stroke-width:0.324047;stroke-linejoin:bevel"
       id="path150" />
    <path
       d="M 7.14375,6.0854167 V 6.6145833 H 7.6729167 7.9375 V 6.0854167 H 7.4083333 Z"
       style="fill:#4d4d4d;stroke-width:0.264583;stroke-linejoin:bevel"
       id="path149" />
    <path
       d="M 7.6729167,5.55625 V 5.8208333 6.0854167 H 7.9375 V 5.55625 Z"
       style="fill:#4d4d4d;stroke-width:0.264583;stroke-linejoin:bevel"
       id="path148" />
    <path
       d="M 7.4083333,5.8208333 V 6.0854167 H 7.6729167 V 5.8208333 Z"
       style="fill:#4d4d4d;stroke-width:0.264583;stroke-linejoin:bevel"
       id="path147" />
    <path
       d="M 7.6729167,6.6145833 V 7.6729167 H 7.9375 V 6.6145833 Z"
       style="fill:#4d4d4d;stroke-width:0.264583;stroke-linejoin:bevel"
       id="path146" />
    <path
       d="M 7.4083333,5.0270833 V 5.2916667 H 7.6729167 7.9375 V 5.0270833 H 7.6729167 Z"
       style="fill:#4d4d4d;stroke-width:0.264583;stroke-linejoin:bevel"
       id="path145" />
    <path
       d="M 7.14375,4.7625 V 5.0270833 H 7.4083333 V 4.7625 Z"
       style="fill:#4d4d4d;stroke-width:0.264583;stroke-linejoin:bevel"
       id="path144" />
    <path
       d="M 7.4083333,0.26458333 V 0.52916667 0.79375 4.7625 5.0270833 H 7.6729167 V 0.26458333 Z"
       style="stroke-width:0.458271;stroke-linejoin:bevel"
       id="path143" />
    <path
       d="M 0.79375,5.55625 V 5.8208333 H 6.8791667 V 5.817216 5.55625 Z"
       style="stroke-width:0.479598;stroke-linejoin:bevel"
       id="path142" />
    <path
       d="M 7.14375,5.0270833 V 5.2916667 H 7.4083333 V 5.0270833 Z"
       style="stroke-width:0.264583;stroke-linejoin:bevel"
       id="path141" />
    <path
       d="M 6.8791667,5.2916667 V 5.5526326 H 7.14375 V 5.2916667 Z"
       style="stroke-width:0.264583;stroke-linejoin:bevel"
       id="path140" />
    <path
       d="M 0.79375,5.2916667 V 5.55625 H 6.8791667 V 5.5526326 5.2916667 H 1.0583333 Z"
       style="fill:#4d4d4d;stroke-width:0.283734;stroke-linejoin:bevel"
       id="path139" />
    <path
       d="M 0.79375,1.0583333 V 5.2916667 H 1.0583333 V 1.0583333 Z"
       style="fill:#4d4d4d;stroke-width:0.282851;stroke-linejoin:bevel"
       id="path138" />
    <path
       d="M 1.0583333,1.0583333 V 5.2916667 H 1.3229167 V 5.0270833 1.0583333 Z"
       style="fill:#ffffff;stroke-width:0.282851;stroke-linejoin:bevel"
       id="path137" />
    <path
       d="M 7.4083333,5.2916667 V 5.5526326 5.55625 H 7.6729167 V 5.2916667 Z"
       style="fill:#4d4d4d;stroke-width:0.264583;stroke-linejoin:bevel"
       id="path136" />
    <path
       d="M 7.14375,5.2916667 V 5.5526326 H 7.4083333 V 5.2916667 Z"
       style="fill:#4d4d4d;stroke-width:0.264583;stroke-linejoin:bevel"
       id="path135" />
    <path
       d="M 6.8791667,5.5526326 V 5.817216 H 7.4083333 V 5.5526326 Z"
       style="fill:#4d4d4d;stroke-width:0.374177;stroke-linejoin:bevel"
       id="path134" />
    <path
       d="M 6.6145833,4.7625 V 5.0270833 5.2916667 H 7.14375 V 4.7625 Z"
       style="fill:#4d4d4d;stroke-width:0.264583;stroke-linejoin:bevel"
       id="path133" />
    <path
       d="M 6.6145833,0.79375 V 1.0583333 4.7625 h 0.79375 V 0.79375 H 6.8791667 Z"
       style="fill:#4d4d4d;stroke-width:1.02473;stroke-linejoin:bevel"
       id="path132" />
    <path
       d="M 1.3229167,5.0270833 V 5.2916667 H 6.6145833 V 5.0270833 H 1.5875 Z"
       style="fill:#999999;stroke-width:0.286981;stroke-linejoin:bevel"
       id="path131" />
    <path
       d="m 1.3229167,1.0583333 v 3.96875 H 1.5875 V 4.7625 4.4979167 1.5875 1.3229167 1.0583333 Z"
       style="fill:#999999;stroke-width:0.309265;stroke-linejoin:bevel"
       id="path130" />
    <path
       d="M 6.35,1.0583333 V 1.3229167 4.7625 5.0270833 h 0.2645833 v -3.96875 z"
       style="fill:#999999;stroke-width:0.284208;stroke-linejoin:bevel"
       id="path129" />
    <path
       d="M 1.5875,4.7625 V 5.0270833 H 6.35 V 4.7625 H 6.0854167 Z"
       style="fill:#ffffff;stroke-width:0.289836;stroke-linejoin:bevel"
       id="path128" />
    <path
       d="M 6.0854167,1.3229167 V 1.5875 4.4979167 4.7625 H 6.35 V 1.3229167 Z"
       style="fill:#ffffff;stroke-width:0.289445;stroke-linejoin:bevel"
       id="path127" />
    <path
       d="M 1.5875,4.4979167 V 4.7625 H 6.0854167 V 4.4979167 H 1.8520833 Z"
       style="fill:#000080;stroke-width:0.291556;stroke-linejoin:bevel"
       id="path126" />
    <path
       d="M 1.5875,1.5875 V 4.4979167 H 1.8520833 V 4.2333333 1.8520833 1.5875 Z"
       style="stroke-width:0.264583;stroke-linejoin:bevel"
       id="path125" />
    <path
       d="m 1.8520833,4.2333333 v 0.2645834 h 3.96875 V 4.2333333 H 5.2916667 3.4395833 Z"
       style="fill:#0023ff;stroke-width:0.284208;stroke-linejoin:bevel"
       id="path124" />
    <path
       d="m 2.9104167,2.6458333 v 0.79375 H 3.4395833 V 3.175 2.9104167 h 0.79375 V 2.6458333 Z"
       style="fill:#ffffff;stroke-width:0.264583;stroke-linejoin:bevel"
       id="path123" />
    <path
       d="m 2.6458333,3.4395833 v 0.2645834 h 0.79375 V 3.4395833 H 2.9104167 Z"
       style="stroke-width:0.264583;stroke-linejoin:bevel"
       id="path122" />
    <path
       d="M 4.2333333,2.38125 V 2.6458333 2.9104167 H 4.4979167 V 2.38125 Z"
       style="stroke-width:0.264583;stroke-linejoin:bevel"
       id="path121" />
    <path
       d="M 2.6458333,2.38125 V 2.6458333 H 2.9104167 4.2333333 V 2.38125 Z"
       style="stroke-width:0.264583;stroke-linejoin:bevel"
       id="path120" />
    <path
       d="m 2.6458333,2.6458333 v 0.79375 h 0.2645834 v -0.79375 z"
       style="fill:#4d4d4d;stroke-width:0.264583;stroke-linejoin:bevel"
       id="path119" />
    <path
       d="M 3.7041667,3.175 V 3.96875 H 5.0270833 V 3.175 Z"
       style="fill:#ffffff;stroke-width:0.264583;stroke-linejoin:bevel"
       id="path118" />
    <path
       d="M 3.4395833,3.96875 V 4.2333333 H 5.2916667 V 3.96875 H 5.0270833 3.7041667 Z"
       style="stroke-width:0.264583;stroke-linejoin:bevel"
       id="path117" />
    <path
       d="M 5.0270833,2.9104167 V 3.175 3.96875 H 5.2916667 V 2.9104167 Z"
       style="stroke-width:0.264583;stroke-linejoin:bevel"
       id="path116" />
    <path
       d="M 3.4395833,2.9104167 V 3.175 H 3.7041667 5.0270833 V 2.9104167 Z"
       style="fill:#000080;stroke-width:0.264583;stroke-linejoin:bevel"
       id="path115" />
    <path
       d="M 3.4395833,3.175 V 3.96875 H 3.7041667 V 3.175 Z"
       style="fill:#4d4d4d;stroke-width:0.264583;stroke-linejoin:bevel"
       id="path114" />
    <path
       d="M 5.8208333,1.5875 V 1.8520833 4.4979167 H 6.0854167 V 1.5875 Z"
       style="fill:#000080;stroke-width:0.264583;stroke-linejoin:bevel"
       id="path113" />
    <path
       d="M 2.1166667,2.1166667 V 2.6458333 H 2.3910685 V 2.1166667 Z"
       style="fill:#00eeff;stroke-width:0.264583;stroke-linejoin:bevel"
       id="path112" />
    <path
       d="m 1.8520833,1.5875 v 0.2645833 h 3.96875 V 1.5875 Z"
       style="stroke-width:0.264583;stroke-linejoin:bevel"
       id="path111" />
    <path
       d="M 1.5875,1.0583333 V 1.3229167 H 6.0854167 6.35 V 1.0583333 Z"
       style="fill:#999999;stroke-width:0.264583;stroke-linejoin:bevel"
       id="path110" />
    <path
       d="M 1.5875,1.3229167 V 1.5875 H 6.0854167 V 1.3229167 Z"
       style="fill:#4d4d4d;stroke-width:0.264583;stroke-linejoin:bevel"
       id="path109" />
    <path
       d="M 1.3229167,0.79375 V 1.0583333 H 6.6145833 V 0.79375 H 1.5875 Z"
       style="fill:#ffffff;stroke-width:0.264583;stroke-linejoin:bevel"
       id="path108" />
    <path
       d="M 1.0583333,0.79375 V 1.0583333 H 1.3229167 V 0.79375 Z"
       style="fill:#4d4d4d;stroke-width:0.264583;stroke-linejoin:bevel"
       id="path107" />
    <path
       d="M 6.6145833,0.52916667 V 0.79375 H 6.8791667 V 0.52916667 Z"
       style="fill:#ffffff;stroke-width:0.264583;stroke-linejoin:bevel"
       id="path106" />
    <path
       d="M 6.8791667,0.26458333 V 0.52916667 H 7.14375 V 0.26458333 Z"
       style="fill:#ffffff;stroke-width:0.264583;stroke-linejoin:bevel"
       id="path105" />
    <path
       d="M 6.8791667,0.52916667 V 0.79375 H 7.4083333 V 0.52916667 H 7.14375 Z"
       style="fill:#4d4d4d;stroke-width:0.264583;stroke-linejoin:bevel"
       id="path104" />
    <path
       d="M 7.14375,0 V 0.26458333 0.52916667 H 7.4083333 V 0 Z"
       style="fill:#4d4d4d;stroke-width:0.374177;stroke-linejoin:bevel"
       id="path103" />
    <path
       d="M 1.3229167,0.52916667 V 0.79375 H 1.5875 V 0.52916667 Z"
       style="fill:#4d4d4d;stroke-width:0.264583;stroke-linejoin:bevel"
       id="path102" />
    <path
       d="M 1.5875,0.26458333 V 0.52916667 H 1.8520833 V 0.26458333 Z"
       style="fill:#4d4d4d;stroke-width:0.264583;stroke-linejoin:bevel"
       id="path101" />
    <path
       d="m 1.8520833,0 v 0.26458333 h 4.7625 H 6.8791667 7.14375 V 0 Z"
       style="fill:#4d4d4d;stroke-width:0.264583;stroke-linejoin:bevel"
       id="path100" />
    <path
       d="M 1.8520833,0.26458333 V 0.52916667 0.79375 h 4.7625 V 0.52916667 0.26458333 Z"
       style="fill:#999999;stroke-width:0.264583;stroke-linejoin:bevel"
       id="path99" />
    <path
       d="M 1.5875,0.52916667 V 0.79375 H 1.8520833 V 0.52916667 Z"
       style="fill:#999999;stroke-width:0.264583;stroke-linejoin:bevel"
       id="path98" />
    <path
       d="M 6.6145833,0.26458333 V 0.52916667 H 6.8791667 V 0.26458333 Z"
       style="fill:#999999;stroke-width:0.264583;stroke-linejoin:bevel"
       id="path97" />
  </g>
</svg>