<?xml version="1.0" encoding="UTF-8" standalone="no"?>
<!-- Created with Inkscape (http://www.inkscape.org/) -->

<svg
   width="31.999998"
   height="31.999998"
   viewBox="0 0 8.4666661 8.4666661"
   version="1.1"
   id="svg1"
   xmlns="http://www.w3.org/2000/svg"
   xmlns:svg="http://www.w3.org/2000/svg">
  <defs
     id="defs1" />
  <g
     id="layer18"
     transform="translate(-0.26458329)">
    <path
       d="M 2.9104166,0.52916666 V 1.5875 H 3.1749999 V 0.79374999 h 3.175 V 2.1166667 h 0.2645833 1.0583334 v 4.4979166 h -1.5875 v 0.2645833 h 1.5875 0.2645833 V 1.5875 H 7.6729166 V 1.8520833 H 6.6145832 V 0.79374999 H 6.8791666 V 0.52916666 H 3.1749999 Z m 3.96875,0.26458333 V 1.0583333 H 7.1437499 V 0.79374999 Z M 7.1437499,1.0583333 V 1.3229167 H 7.4083332 V 1.0583333 Z M 7.4083332,1.3229167 V 1.5875 H 7.6729166 V 1.3229167 Z"
       style="stroke-width:0.0206375;stroke-linejoin:round;paint-order:stroke fill markers"
       id="path76" />
    <g
       id="layer20">
      <path
         d="M 3.1749999,0.79374999 V 1.5875 H 5.0270833 V 1.8520833 H 5.2916666 V 2.1166667 H 5.5562499 V 2.38125 h 0.2645833 v 0.2645833 h 0.2645834 v 3.96875 h 1.5875 V 2.1166667 H 6.6145832 6.3499999 V 0.79374999 Z"
         style="fill:#00aa88;stroke-width:0.0206375;stroke-linejoin:round;paint-order:stroke fill markers"
         id="path75" />
      <path
         d="M 6.6145832,0.79374999 V 1.8520833 H 7.6729166 V 1.5875 H 7.4083332 V 1.3229167 H 7.1437499 V 1.0583333 H 6.8791666 V 0.79374999 Z"
         style="fill:#002b22;stroke-width:0.0206375;stroke-linejoin:round;paint-order:stroke fill markers"
         id="path74" />
    </g>
  </g>
  <g
     id="layer13"
     transform="translate(0.26458335)">
    <g
       id="layer14">
      <path
         d="M 0.52916664,1.5875 V 7.9374999 H 0.79374998 5.2916666 5.5562499 V 2.6458333 H 5.2916666 V 2.9104166 H 4.2333333 V 1.8520833 H 4.4979166 V 1.5875 H 0.79374998 Z M 4.4979166,1.8520833 V 2.1166667 H 4.7624999 V 1.8520833 Z M 4.7624999,2.1166667 V 2.38125 H 5.0270833 V 2.1166667 Z M 5.0270833,2.38125 V 2.6458333 H 5.2916666 V 2.38125 Z M 0.79374998,1.8520833 H 3.96875 V 3.175 H 4.2333333 5.2916666 V 7.6729166 H 0.79374998 Z"
         style="stroke-width:0.0206375;stroke-linejoin:round;paint-order:stroke fill markers"
         id="path73" />
    </g>
    <g
       id="layer15">
      <path
         d="M 2.6458333,3.96875 V 4.2333333 H 4.4979166 V 3.96875 Z m 1.8520833,0.2645833 v 0.79375 h 0.2645833 v -0.79375 z m 0,0.79375 h -0.79375 V 4.7625 H 3.4395833 v 0.2645833 h -0.79375 v 0.2645833 h 0.79375 V 5.55625 H 3.7041666 V 5.2916666 h 0.79375 z M 3.4395833,5.55625 H 1.5875 v 0.2645833 h 1.8520833 z m -1.8520833,0 V 4.7625 H 1.3229166 v 0.79375 z m 0,-0.79375 H 2.38125 V 5.0270833 H 2.6458333 V 4.7625 h 0.79375 V 4.4979166 h -0.79375 V 4.2333333 H 2.38125 V 4.4979166 H 1.5875 Z"
         style="stroke-width:0.0206375;stroke-linejoin:round;paint-order:stroke fill markers"
         id="path72" />
    </g>
    <g
       id="layer16">
      <path
         d="M 0.79374998,1.8520833 V 7.6729166 H 5.2916666 V 3.175 H 4.2333333 3.96875 V 1.8520833 Z M 2.6458333,3.96875 h 1.8520833 v 0.2645833 h 0.2645833 v 0.79375 H 4.4979166 v 0.2645833 h -0.79375 V 5.55625 H 3.4395833 V 5.8208333 H 1.5875 V 5.55625 H 1.3229166 V 4.7625 H 1.5875 V 4.4979166 H 2.38125 V 4.2333333 h 0.2645833 z m 0,0.2645833 v 0.2645833 h 0.79375 V 4.7625 h 0.2645833 v 0.2645833 h 0.79375 v -0.79375 z M 3.4395833,4.7625 h -0.79375 v 0.2645833 h 0.79375 z m -0.79375,0.2645833 H 2.38125 V 4.7625 H 1.5875 V 5.55625 H 3.4395833 V 5.2916666 h -0.79375 z"
         style="fill:#00ffcc;stroke-width:0.0206375;stroke-linejoin:round;paint-order:stroke fill markers"
         id="path71" />
      <path
         d="M 4.2333333,1.8520833 V 2.9104166 H 5.2916666 V 2.6458333 H 5.0270833 V 2.38125 H 4.7624999 V 2.1166667 H 4.4979166 V 1.8520833 Z"
         style="fill:#005544;stroke-width:0.0206375;stroke-linejoin:round;paint-order:stroke fill markers"
         id="path70" />
    </g>
  </g>
</svg>