<?xml version="1.0" encoding="UTF-8" standalone="no"?>
<!-- Created with Inkscape (http://www.inkscape.org/) -->

<svg
   width="32"
   height="32"
   viewBox="0 0 8.4666666 8.4666666"
   version="1.1"
   id="svg1"
   inkscape:version="1.3 (0e150ed6c4, 2023-07-21)"
   sodipodi:docname="esc-pixel.svg"
   xmlns:inkscape="http://www.inkscape.org/namespaces/inkscape"
   xmlns:sodipodi="http://sodipodi.sourceforge.net/DTD/sodipodi-0.dtd"
   xmlns="http://www.w3.org/2000/svg"
   xmlns:svg="http://www.w3.org/2000/svg">
  <sodipodi:namedview
     id="namedview1"
     pagecolor="#505050"
     bordercolor="#eeeeee"
     borderopacity="1"
     inkscape:showpageshadow="0"
     inkscape:pageopacity="0"
     inkscape:pagecheckerboard="0"
     inkscape:deskcolor="#505050"
     inkscape:document-units="px"
     showgrid="true"
     inkscape:zoom="22.627417"
     inkscape:cx="17.677669"
     inkscape:cy="15.048116"
     inkscape:window-width="2560"
     inkscape:window-height="1369"
     inkscape:window-x="1912"
     inkscape:window-y="-8"
     inkscape:window-maximized="1"
     inkscape:current-layer="layer15">
    <inkscape:grid
       id="grid1"
       units="px"
       originx="0"
       originy="0"
       spacingx="0.26458333"
       spacingy="0.26458333"
       empcolor="#0099e5"
       empopacity="0.30196078"
       color="#0099e5"
       opacity="0.14901961"
       empspacing="4"
       dotted="false"
       gridanglex="30"
       gridanglez="30"
       visible="true" />
  </sodipodi:namedview>
  <defs
     id="defs1" />
  <g
     inkscape:groupmode="layer"
     id="layer16"
     inkscape:label="Fill Color"
     style="fill:#cccccc">
    <path
       id="rect158"
       style="fill:#00ffcc;stroke-width:0.264583;stroke-linejoin:round;paint-order:stroke fill markers"
       inkscape:label="top"
       d="M 1.3229166,1.3229166 H 7.1437494 V 6.085416 H 1.3229166 Z" />
    <path
       id="rect161"
       style="fill:#005544;stroke-width:0.255611;stroke-linejoin:round;paint-order:stroke fill markers"
       d="M 0.26458332,6.3499999 H 8.2020833 V 8.202083 H 0.26458332 Z"
       inkscape:label="front" />
    <path
       id="path161"
       style="fill:#008066;stroke-width:0.264583;stroke-linejoin:round;paint-order:stroke fill markers"
       d="M 7.9374995,1.8520833 V 2.38125 H 8.2020828 V 7.4083333 H 7.6729162 V 6.8791666 H 7.4083329 V 1.8520833 Z m -7.40833284,0 V 2.38125 H 0.26458333 V 7.4083333 H 0.79374999 V 6.8791666 H 1.0583333 V 1.8520833 Z"
       inkscape:label="sides" />
  </g>
  <g
     inkscape:groupmode="layer"
     id="layer14"
     inkscape:label="Outlines"
     sodipodi:insensitive="true">
    <path
       id="rect95"
       style="stroke-width:0.264583;stroke-linejoin:round;paint-order:stroke fill markers"
       d="M 0,2.9104166 H 0.26458332 V 4.2333331 H 0 Z m 7.6729159,-1.5875 H 7.4083326 V 1.8520834 H 7.6729159 Z M 7.9374995,1.8520824 H 7.6729162 V 2.3812499 H 7.9374995 Z M 8.2020826,2.3812492 H 7.9374993 V 2.9104167 H 8.2020826 Z M 0.79374999,1.3229166 H 1.0583333 V 1.8520834 H 0.79374999 Z M 0.52916664,1.8520824 H 0.79374996 V 2.3812499 H 0.52916664 Z M 0.26458332,2.381249 H 0.52916664 V 2.9104165 H 0.26458332 Z M 8.2020836,7.4083323 H 7.9375003 V 7.9374999 H 8.2020836 Z M 7.9375,6.8791656 H 7.6729167 V 7.4083332 H 7.9375 Z M 7.6729169,6.3499994 H 7.4083336 V 6.879167 H 7.6729169 Z M 0.26458332,7.4083323 H 0.52916664 V 7.9374999 H 0.26458332 Z M 0.52916664,6.8791656 H 0.79374996 V 7.4083332 H 0.52916664 Z M 0.79374993,6.3499994 H 1.0583332 V 6.879167 H 0.79374993 Z M 8.2020826,2.9104164 H 8.466666 V 4.233333 H 8.2020826 Z M 1.0583333,1.0583333 V 2.38125 H 1.3229167 V 1.3229167 H 7.1437499 V 2.38125 H 7.4083333 V 1.0583333 Z m 0,1.0583334 V 6.35 h 6.35 V 2.1166667 H 7.1437499 V 2.38125 6.0854166 H 1.3229167 V 2.38125 2.1166667 Z M 9.4595343e-8,4.2333333 V 8.4666666 H 8.4666664 V 4.2333333 H 8.2020831 v 3.96875 H 0.26458342 v -3.96875 z"
       inkscape:label="outlines" />
  </g>
  <g
     inkscape:groupmode="layer"
     id="layer15"
     inkscape:label="Text"
     sodipodi:insensitive="true">
    <path
       id="rect62"
       style="stroke-width:0.187089;stroke-linejoin:round;paint-order:stroke fill markers"
       transform="translate(2.0861626e-7,0.2645832)"
       d="M 6.3499999,4.4979162 H 6.6145832 V 4.7624998 H 6.3499999 Z m -1.06418,0.2645837 v 0.2645833 h 0.2645833 0.79375 V 4.7624999 h -0.79375 z M 5.0270834,2.1166666 H 5.2916667 V 4.7624998 H 5.0270834 Z M 5.2916665,1.8520831 H 5.5562498 V 2.1166666 H 5.2916665 Z m 0.2625284,0 H 6.3499998 V 2.1166663 H 5.5541949 Z M 6.3551683,2.1166668 H 6.6145831 V 2.38125 H 6.3551683 Z M 3.4395828,4.2333331 H 3.7041661 V 4.7624997 H 3.4395828 Z M 3.7041663,4.7624999 H 4.4979162 V 5.0270832 H 3.7041663 Z M 4.4979162,3.4395833 H 4.7624995 V 4.7624997 H 4.4979162 Z M 3.7041662,3.175 H 4.4979161 V 3.4395833 H 3.7041662 Z M 3.4395828,2.1166666 H 3.7041661 V 3.1749998 H 3.4395828 Z m 1.0583339,0 H 4.7625 V 2.3812499 H 4.4979167 Z M 3.7041662,1.8520831 H 4.4979161 V 2.1166664 H 3.7041662 Z M 2.1166663,4.7624998 H 3.1749996 V 5.0270831 H 2.1166663 Z m 0,-1.5874998 H 3.1749996 V 3.4395833 H 2.1166663 Z m 3e-7,-1.3229167 H 3.1749998 V 2.1166666 H 2.1166666 Z m -0.2645836,0 h 0.2645833 v 3.175 H 1.852083 Z"
       inkscape:label="esc" />
  </g>
</svg>