<?xml version="1.0" encoding="UTF-8" standalone="no"?>
<!-- Created with Inkscape (http://www.inkscape.org/) -->

<svg
   width="32"
   height="32"
   viewBox="0 0 8.4666666 8.4666666"
   version="1.1"
   id="svg1"
   inkscape:version="1.3 (0e150ed6c4, 2023-07-21)"
   sodipodi:docname="esc-pixel-flat.svg"
   xmlns:inkscape="http://www.inkscape.org/namespaces/inkscape"
   xmlns:sodipodi="http://sodipodi.sourceforge.net/DTD/sodipodi-0.dtd"
   xmlns="http://www.w3.org/2000/svg"
   xmlns:svg="http://www.w3.org/2000/svg">
  <sodipodi:namedview
     id="namedview1"
     pagecolor="#505050"
     bordercolor="#eeeeee"
     borderopacity="1"
     inkscape:showpageshadow="0"
     inkscape:pageopacity="0"
     inkscape:pagecheckerboard="0"
     inkscape:deskcolor="#505050"
     inkscape:document-units="px"
     showgrid="true"
     inkscape:zoom="22.627417"
     inkscape:cx="17.36831"
     inkscape:cy="18.937203"
     inkscape:window-width="2560"
     inkscape:window-height="1369"
     inkscape:window-x="1912"
     inkscape:window-y="-8"
     inkscape:window-maximized="1"
     inkscape:current-layer="svg1">
    <inkscape:grid
       id="grid1"
       units="px"
       originx="0"
       originy="0"
       spacingx="0.26458333"
       spacingy="0.26458333"
       empcolor="#0099e5"
       empopacity="0.30196078"
       color="#0099e5"
       opacity="0.14901961"
       empspacing="4"
       dotted="false"
       gridanglex="30"
       gridanglez="30"
       visible="true" />
  </sodipodi:namedview>
  <defs
     id="defs1" />
  <path
     d="M 1.3229167,1.3229167 V 2.1166667 2.38125 6.0854166 H 7.1437499 V 2.38125 2.1166667 1.3229167 Z m 0.5291666,0.79375 H 2.1166667 3.175 V 2.38125 H 2.1166667 V 3.4395833 H 3.175 V 3.7041666 H 2.1166667 V 5.0270833 H 3.175 V 5.2916666 H 2.1166667 1.8520833 Z m 1.8520833,0 h 0.79375 V 2.38125 H 4.7625 V 2.6458333 H 4.4979166 V 2.38125 h -0.79375 v 1.0583333 h 0.79375 V 3.7041666 H 4.7625 V 5.0270833 H 4.4979166 v 0.2645833 h -0.79375 V 5.0270833 H 3.4395833 V 4.4979166 h 0.2645833 v 0.5291667 h 0.79375 V 3.7041666 h -0.79375 V 3.4395833 H 3.4395833 V 2.38125 h 0.2645833 z m 1.5875,0 H 5.5541829 5.55625 6.35 V 2.38125 H 5.55625 5.5541829 5.2916666 v 2.6458333 h 0.2588989 0.79375 V 5.2916666 H 5.5505655 5.2859822 V 5.0270833 H 5.0270833 V 2.38125 H 5.2916666 Z M 6.3551676,2.38125 H 6.6145833 V 2.6458333 H 6.3551676 Z M 6.35,4.7625 H 6.6145833 V 5.0270833 H 6.35 Z"
     style="display:inline;fill:#00ffcc;stroke-width:0.264583;stroke-linejoin:round;paint-order:stroke fill markers"
     id="path13" />
  <path
     d="M 1.0583333,6.35 V 6.8791666 H 0.79374999 V 7.4083333 H 0.52916666 V 7.9374999 H 0.26458333 V 8.2020833 H 8.2020833 V 7.9374999 H 7.9374999 V 7.4083333 H 7.6729166 V 6.8791666 H 7.4083333 V 6.35 Z"
     style="display:inline;fill:#005544;stroke-width:0.255611;stroke-linejoin:round;paint-order:stroke fill markers"
     id="path12" />
  <path
     d="M 0.79374999,1.8520833 V 2.38125 H 0.52916666 V 2.9104166 H 0.26458333 v 1.3229167 3.175 H 0.52916666 V 6.8791666 H 0.79374999 V 6.35 H 1.0583333 V 2.38125 2.1166667 1.8520833 Z m 6.61458331,0 V 2.1166667 2.38125 6.35 h 0.2645833 v 0.5291666 h 0.2645833 v 0.5291667 h 0.2645834 v -3.175 -1.3229167 H 7.9374999 V 2.38125 H 7.6729166 V 1.8520833 Z"
     style="display:inline;fill:#008066;stroke-width:0.264583;stroke-linejoin:round;paint-order:stroke fill markers"
     id="path11" />
  <path
     d="M 1.0583333,1.0583333 V 1.3229167 H 0.79374999 V 1.8520833 H 1.0583333 V 2.1166667 2.38125 6.35 h 6.35 V 2.38125 2.1166667 1.8520833 H 7.6729166 V 1.3229167 H 7.4083333 V 1.0583333 Z m 6.6145833,0.79375 V 2.38125 H 7.9374999 V 1.8520833 Z M 7.9374999,2.38125 V 2.9104166 H 8.2020833 V 2.38125 Z m 0.2645834,0.5291666 v 1.3229167 3.175 H 7.9374999 V 7.9374999 H 8.2020833 V 8.2020833 H 0.26458333 V 7.9374999 H 0.52916666 V 7.4083333 H 0.26458333 v -3.175 -1.3229167 H 0 V 4.2333333 8.4666666 H 8.4666666 V 4.2333333 2.9104166 Z m -7.93749997,0 H 0.52916666 V 2.38125 H 0.26458333 Z M 0.52916666,2.38125 H 0.79374999 V 1.8520833 H 0.52916666 Z m 0,5.0270833 H 0.79374999 V 6.8791666 H 0.52916666 Z M 0.79374999,6.8791666 H 1.0583333 V 6.35 H 0.79374999 Z M 7.9374999,7.4083333 V 6.8791666 H 7.6729166 V 7.4083333 Z M 7.6729166,6.8791666 V 6.35 H 7.4083333 V 6.8791666 Z M 1.3229167,1.3229167 H 7.1437499 V 2.1166667 2.38125 6.0854166 H 1.3229167 V 2.38125 2.1166667 Z"
     style="display:inline;stroke-width:0.264583;stroke-linejoin:round;paint-order:stroke fill markers"
     id="path10" />
  <path
     d="M 1.8520833,2.1166667 V 5.2916666 H 2.1166667 3.175 V 5.0270833 H 2.1166667 V 3.7041666 H 3.175 V 3.4395833 H 2.1166667 V 2.38125 H 3.175 V 2.1166667 H 2.1166667 Z m 1.8520833,0 V 2.38125 h 0.79375 V 2.1166667 Z M 4.4979166,2.38125 V 2.6458333 H 4.7625 V 2.38125 Z m -0.79375,0 H 3.4395833 v 1.0583333 h 0.2645833 z m 0,1.0583333 v 0.2645833 h 0.79375 V 3.4395833 Z m 0.79375,0.2645833 V 5.0270833 H 4.7625 V 3.7041666 Z m 0,1.3229167 h -0.79375 v 0.2645833 h 0.79375 z m -0.79375,0 V 4.4979166 H 3.4395833 v 0.5291667 z m 1.5875,-2.9104166 V 2.38125 H 5.5541829 5.55625 6.35 V 2.1166667 H 5.55625 5.55418 Z m 0,0.2645833 H 5.0270833 v 2.6458333 h 0.2588989 v 0.2645833 h 0.2645833 0.79375 V 5.0270833 h -0.79375 -0.2588989 z m 1.063501,0 V 2.6458333 H 6.6145833 V 2.38125 Z M 6.35,4.7625 V 5.0270833 H 6.6145833 V 4.7625 Z"
     style="display:inline;stroke-width:0.187089;stroke-linejoin:round;paint-order:stroke fill markers"
     id="path9" />
</svg>