<?xml version="1.0" encoding="UTF-8" standalone="no"?>
<!-- Created with Inkscape (http://www.inkscape.org/) -->

<svg
   width="31.999998"
   height="31.999998"
   viewBox="0 0 8.4666661 8.4666661"
   version="1.1"
   id="svg1"
   xmlns="http://www.w3.org/2000/svg"
   xmlns:svg="http://www.w3.org/2000/svg">
  <defs
     id="defs1" />
  <g
     id="layer2"
     style="display:inline;fill:#000000">
    <path
       id="path162"
       style="fill:#000000;stroke-width:0.0206375;stroke-linejoin:round;paint-order:stroke fill markers"
       d="M 3.175,1.3229167 V 1.5875 H 3.4395833 V 1.3229167 Z m 1.8520833,0 V 1.5875 H 5.2916666 V 1.3229167 Z M 2.38125,6.0854166 V 6.6145833 H 2.9104166 V 6.0854166 Z M 2.9104166,6.35 v 0.2645833 0.2645833 h 0.79375 V 6.35 Z M 5.55625,6.0854166 V 6.6145833 H 6.0854166 V 6.0854166 Z M 4.7625,6.35 V 6.8791666 H 5.55625 V 6.6145833 6.35 Z M 3.96875,5.8208333 V 6.0854166 H 4.4979166 V 5.8208333 Z M 5.55625,3.175 V 3.7041666 H 5.8208333 V 3.175 Z M 5.8208333,2.6458333 V 3.175 3.7041666 6.0854166 H 6.0854166 6.35 V 2.6458333 Z M 3.175,7.4083333 V 7.9374999 H 5.2916666 V 7.4083333 Z M 3.96875,6.8791666 V 7.4083333 H 4.4979166 V 6.8791666 Z M 3.7041666,6.35 V 6.8791666 H 3.96875 4.4979166 4.7625 V 6.35 Z M 2.6458333,3.175 V 3.7041666 H 2.9104166 V 3.175 Z M 3.96875,6.0854166 V 6.35 H 4.4979166 V 6.0854166 Z M 2.1166667,2.6458333 V 6.0854166 H 2.38125 2.6458333 V 3.7041666 3.175 2.6458333 Z M 3.4395833,5.2916666 V 5.8208333 H 3.96875 4.4979166 5.0270833 V 5.2916666 Z M 5.0270833,1.5875 V 5.2916666 5.55625 H 5.55625 V 3.7041666 3.175 1.5875 H 5.2916666 Z m -2.1166667,0 V 3.175 3.7041666 5.55625 H 3.4395833 V 5.2916666 1.5875 H 3.175 Z M 3.4395833,1.0583333 V 1.3229167 1.5875 h 1.5875 V 1.3229167 1.0583333 Z" />
  </g>
</svg>