<?xml version="1.0" encoding="UTF-8" standalone="no"?>
<!-- Created with Inkscape (http://www.inkscape.org/) -->

<svg
   width="31.999998"
   height="31.999998"
   viewBox="0 0 8.4666661 8.4666661"
   version="1.1"
   id="svg1"
   xmlns="http://www.w3.org/2000/svg"
   xmlns:svg="http://www.w3.org/2000/svg">
  <defs
     id="defs1" />
  <g
     id="layer2"
     style="display:inline;fill:#000000">
    <path
       id="path162"
       style="display:inline;fill:#ae2012;stroke-width:0.0206375;stroke-linejoin:round;paint-order:stroke fill markers"
       d="M 3.175,1.3229167 V 1.5875 H 3.4395833 V 1.3229167 Z m 1.8520833,0 V 1.5875 H 5.2916666 V 1.3229167 Z M 2.38125,6.0854166 V 6.6145833 H 2.9104166 V 6.0854166 Z M 2.9104166,6.35 v 0.2645833 0.2645833 h 0.79375 V 6.35 Z M 5.55625,6.0854166 V 6.6145833 H 6.0854166 V 6.0854166 Z M 4.7625,6.35 V 6.8791666 H 5.55625 V 6.6145833 6.35 Z M 3.96875,5.8208333 V 6.0854166 H 4.4979166 V 5.8208333 Z M 5.55625,3.175 V 3.7041666 H 5.8208333 V 3.175 Z M 5.8208333,2.6458333 V 3.175 3.7041666 6.0854166 H 6.0854166 6.35 V 2.6458333 Z M 3.175,7.4083333 V 7.9374999 H 5.2916666 V 7.4083333 Z M 3.96875,6.8791666 V 7.4083333 H 4.4979166 V 6.8791666 Z M 3.7041666,6.35 V 6.8791666 H 3.96875 4.4979166 4.7625 V 6.35 Z M 2.6458333,3.175 V 3.7041666 H 2.9104166 V 3.175 Z M 3.96875,6.0854166 V 6.35 H 4.4979166 V 6.0854166 Z M 2.1166667,2.6458333 V 6.0854166 H 2.38125 2.6458333 V 3.7041666 3.175 2.6458333 Z M 3.4395833,5.2916666 V 5.8208333 H 3.96875 4.4979166 5.0270833 V 5.2916666 Z M 5.0270833,1.5875 V 5.2916666 5.55625 H 5.55625 V 3.7041666 3.175 1.5875 H 5.2916666 Z m -2.1166667,0 V 3.175 3.7041666 5.55625 H 3.4395833 V 5.2916666 1.5875 H 3.175 Z M 3.4395833,1.0583333 V 1.3229167 1.5875 h 1.5875 V 1.3229167 1.0583333 Z" />
  </g>
  <g
     id="layer7"
     style="display:inline">
    <rect
       style="fill:#ae2012;stroke-width:0.0206375;stroke-linejoin:round;paint-order:stroke fill markers"
       id="rect143"
       width="0.52916664"
       height="0.52916664"
       x="7.1437492"
       y="0.79374993" />
    <rect
       style="fill:#ae2012;stroke-width:0.0206375;stroke-linejoin:round;paint-order:stroke fill markers"
       id="rect144"
       width="0.52916664"
       height="0.52916664"
       x="6.8791661"
       y="1.0583334" />
    <rect
       style="fill:#ae2012;stroke-width:0.0206375;stroke-linejoin:round;paint-order:stroke fill markers"
       id="rect145"
       width="0.52916664"
       height="0.52916664"
       x="6.614583"
       y="1.3229166" />
    <rect
       style="fill:#ae2012;stroke-width:0.0206375;stroke-linejoin:round;paint-order:stroke fill markers"
       id="rect146"
       width="0.52916664"
       height="0.52916664"
       x="6.3499999"
       y="1.5875" />
    <rect
       style="fill:#ae2012;stroke-width:0.0206375;stroke-linejoin:round;paint-order:stroke fill markers"
       id="rect147"
       width="0.52916664"
       height="0.52916664"
       x="6.0854163"
       y="1.8520833" />
    <rect
       style="fill:#ae2012;stroke-width:0.0206375;stroke-linejoin:round;paint-order:stroke fill markers"
       id="rect148"
       width="0.52916664"
       height="0.52916664"
       x="5.8208332"
       y="2.1166666" />
    <rect
       style="fill:#ae2012;stroke-width:0.0206375;stroke-linejoin:round;paint-order:stroke fill markers"
       id="rect149"
       width="0.52916664"
       height="0.52916664"
       x="5.5562496"
       y="2.3812499" />
    <rect
       style="fill:#ae2012;stroke-width:0.0206375;stroke-linejoin:round;paint-order:stroke fill markers"
       id="rect150"
       width="0.52916664"
       height="0.52916664"
       x="5.2916665"
       y="2.6458333" />
    <rect
       style="fill:#ae2012;stroke-width:0.0206375;stroke-linejoin:round;paint-order:stroke fill markers"
       id="rect151"
       width="0.52916664"
       height="0.52916664"
       x="5.0270834"
       y="2.9104166" />
    <rect
       style="fill:#ae2012;stroke-width:0.0206375;stroke-linejoin:round;paint-order:stroke fill markers"
       id="rect152"
       width="0.52916664"
       height="0.52916664"
       x="4.7625003"
       y="3.175" />
    <rect
       style="fill:#ae2012;stroke-width:0.0206375;stroke-linejoin:round;paint-order:stroke fill markers"
       id="rect153"
       width="0.52916664"
       height="0.52916664"
       x="4.4979172"
       y="3.4395833" />
    <rect
       style="fill:#ae2012;stroke-width:0.0206375;stroke-linejoin:round;paint-order:stroke fill markers"
       id="rect154"
       width="0.52916664"
       height="0.52916664"
       x="4.2333336"
       y="3.7041667" />
    <rect
       style="fill:#ae2012;stroke-width:0.0206375;stroke-linejoin:round;paint-order:stroke fill markers"
       id="rect155"
       width="0.52916664"
       height="0.52916664"
       x="3.9687502"
       y="3.9687498" />
    <rect
       style="fill:#ae2012;stroke-width:0.0206375;stroke-linejoin:round;paint-order:stroke fill markers"
       id="rect156"
       width="0.52916664"
       height="0.52916664"
       x="3.7041667"
       y="4.2333331" />
    <rect
       style="fill:#ae2012;stroke-width:0.0206375;stroke-linejoin:round;paint-order:stroke fill markers"
       id="rect157"
       width="0.52916664"
       height="0.52916664"
       x="3.4395828"
       y="4.4979162" />
    <rect
       style="fill:#ae2012;stroke-width:0.0206375;stroke-linejoin:round;paint-order:stroke fill markers"
       id="rect158"
       width="0.52916664"
       height="0.52916664"
       x="3.1749997"
       y="4.7624998" />
    <rect
       style="fill:#ae2012;stroke-width:0.0206375;stroke-linejoin:round;paint-order:stroke fill markers"
       id="rect159"
       width="0.52916664"
       height="0.52916664"
       x="2.9104166"
       y="5.0270829" />
    <rect
       style="fill:#ae2012;stroke-width:0.0206375;stroke-linejoin:round;paint-order:stroke fill markers"
       id="rect160"
       width="0.52916664"
       height="0.52916664"
       x="2.6458335"
       y="5.2916665" />
    <rect
       style="fill:#ae2012;stroke-width:0.0206375;stroke-linejoin:round;paint-order:stroke fill markers"
       id="rect161"
       width="0.52916664"
       height="0.52916664"
       x="2.3812499"
       y="5.5562496" />
    <rect
       style="fill:#ae2012;stroke-width:0.0206375;stroke-linejoin:round;paint-order:stroke fill markers"
       id="rect162"
       width="0.52916664"
       height="0.52916664"
       x="2.1166666"
       y="5.8208327" />
    <rect
       style="fill:#ae2012;stroke-width:0.0206375;stroke-linejoin:round;paint-order:stroke fill markers"
       id="rect163"
       width="0.52916664"
       height="0.52916664"
       x="1.8520831"
       y="6.0854163" />
    <rect
       style="fill:#ae2012;stroke-width:0.0206375;stroke-linejoin:round;paint-order:stroke fill markers"
       id="rect164"
       width="0.52916664"
       height="0.52916664"
       x="1.5874999"
       y="6.3499994" />
    <rect
       style="fill:#ae2012;stroke-width:0.0206375;stroke-linejoin:round;paint-order:stroke fill markers"
       id="rect165"
       width="0.52916664"
       height="0.52916664"
       x="1.3229165"
       y="6.6145825" />
    <rect
       style="fill:#ae2012;stroke-width:0.0206375;stroke-linejoin:round;paint-order:stroke fill markers"
       id="rect166"
       width="0.52916664"
       height="0.52916664"
       x="1.058333"
       y="6.8791661" />
    <rect
       style="fill:#ae2012;stroke-width:0.0206375;stroke-linejoin:round;paint-order:stroke fill markers"
       id="rect167"
       width="0.52916664"
       height="0.52916664"
       x="0.79374993"
       y="7.1437497" />
  </g>
</svg>