<?xml version="1.0" encoding="UTF-8" standalone="no"?>
<!-- Created with Inkscape (http://www.inkscape.org/) -->

<svg
   width="32"
   height="32"
   viewBox="0 0 8.4666666 8.4666666"
   version="1.1"
   id="svg1"
   inkscape:version="1.3 (0e150ed6c4, 2023-07-21)"
   sodipodi:docname="basic-mouse-pixel.svg"
   xmlns:inkscape="http://www.inkscape.org/namespaces/inkscape"
   xmlns:sodipodi="http://sodipodi.sourceforge.net/DTD/sodipodi-0.dtd"
   xmlns="http://www.w3.org/2000/svg"
   xmlns:svg="http://www.w3.org/2000/svg">
  <sodipodi:namedview
     id="namedview1"
     pagecolor="#505050"
     bordercolor="#eeeeee"
     borderopacity="1"
     inkscape:showpageshadow="0"
     inkscape:pageopacity="0"
     inkscape:pagecheckerboard="0"
     inkscape:deskcolor="#505050"
     inkscape:document-units="px"
     showgrid="true"
     inkscape:zoom="32"
     inkscape:cx="14.5625"
     inkscape:cy="15.734375"
     inkscape:window-width="2560"
     inkscape:window-height="1369"
     inkscape:window-x="1912"
     inkscape:window-y="-8"
     inkscape:window-maximized="1"
     inkscape:current-layer="layer6">
    <inkscape:grid
       id="grid1"
       units="px"
       originx="0"
       originy="0"
       spacingx="0.26458333"
       spacingy="0.26458333"
       empcolor="#0099e5"
       empopacity="0.30196078"
       color="#0099e5"
       opacity="0.14901961"
       empspacing="4"
       dotted="false"
       gridanglex="30"
       gridanglez="30"
       visible="true" />
  </sodipodi:namedview>
  <defs
     id="defs1">
    <inkscape:path-effect
       effect="powerclip"
       id="path-effect66"
       is_visible="true"
       lpeversion="1"
       inverse="true"
       flatten="false"
       hide_clip="false"
       message="Use fill-rule evenodd on &lt;b&gt;fill and stroke&lt;/b&gt; dialog if no flatten result after convert clip to paths." />
    <inkscape:path-effect
       effect="powerclip"
       id="path-effect65"
       is_visible="true"
       lpeversion="1"
       inverse="true"
       flatten="false"
       hide_clip="false"
       message="Use fill-rule evenodd on &lt;b&gt;fill and stroke&lt;/b&gt; dialog if no flatten result after convert clip to paths." />
    <inkscape:path-effect
       effect="powerclip"
       id="path-effect64"
       is_visible="true"
       lpeversion="1"
       inverse="true"
       flatten="false"
       hide_clip="false"
       message="Use fill-rule evenodd on &lt;b&gt;fill and stroke&lt;/b&gt; dialog if no flatten result after convert clip to paths." />
    <inkscape:path-effect
       effect="fillet_chamfer"
       id="path-effect25"
       is_visible="true"
       lpeversion="1"
       nodesatellites_param="F,0,1,1,0,0.13293385,0,1 @ F,0,0,1,0,0,0,1 @ F,0,1,1,0,0.13293385,0,1 @ F,0,0,1,0,0.26458335,0,1 @ F,0,0,1,0,0,0,1 @ F,0,0,1,0,0.26458335,0,1"
       radius="0"
       unit="px"
       method="auto"
       mode="F"
       chamfer_steps="1"
       flexible="false"
       use_knot_distance="true"
       apply_no_radius="true"
       apply_with_radius="true"
       only_selected="false"
       hide_knots="false" />
    <inkscape:path-effect
       effect="fillet_chamfer"
       id="path-effect23"
       is_visible="true"
       lpeversion="1"
       nodesatellites_param="F,0,1,1,0,0.13293385,0,1 @ F,0,0,1,0,0,0,1 @ F,0,1,1,0,0.13293385,0,1 @ F,0,0,1,0,0.26458335,0,1 @ F,0,0,1,0,0,0,1 @ F,0,0,1,0,0.26458335,0,1"
       radius="0"
       unit="px"
       method="auto"
       mode="F"
       chamfer_steps="1"
       flexible="false"
       use_knot_distance="true"
       apply_no_radius="true"
       apply_with_radius="true"
       only_selected="false"
       hide_knots="false" />
    <inkscape:path-effect
       effect="bspline"
       id="path-effect21"
       is_visible="true"
       lpeversion="1.3"
       weight="33.333333"
       steps="2"
       helper_size="0"
       apply_no_weight="true"
       apply_with_weight="true"
       only_selected="false"
       uniform="false" />
    <inkscape:path-effect
       effect="fillet_chamfer"
       id="path-effect19"
       is_visible="true"
       lpeversion="1"
       nodesatellites_param="F,0,0,1,0,0.13169816,0,1 @ F,0,0,1,0,0.13038305,0,1 @ F,0,0,1,0,0,0,1 @ F,0,0,1,0,0,0,1"
       radius="0"
       unit="px"
       method="auto"
       mode="F"
       chamfer_steps="1"
       flexible="false"
       use_knot_distance="true"
       apply_no_radius="true"
       apply_with_radius="true"
       only_selected="false"
       hide_knots="false" />
    <inkscape:path-effect
       effect="fillet_chamfer"
       id="path-effect15"
       is_visible="true"
       lpeversion="1"
       nodesatellites_param="F,0,0,1,0,0.13169816,0,1 @ F,0,0,1,0,0.13038305,0,1 @ F,0,0,1,0,0,0,1 @ F,0,0,1,0,0,0,1"
       radius="0"
       unit="px"
       method="auto"
       mode="F"
       chamfer_steps="1"
       flexible="false"
       use_knot_distance="true"
       apply_no_radius="true"
       apply_with_radius="true"
       only_selected="false"
       hide_knots="false" />
    <inkscape:path-effect
       effect="fillet_chamfer"
       id="path-effect14"
       is_visible="true"
       lpeversion="1"
       nodesatellites_param="F,0,1,1,0,0.13293385,0,1 @ F,0,0,1,0,0,0,1 @ F,0,1,1,0,0.13293385,0,1 @ F,0,0,1,0,0.26458335,0,1 @ F,0,0,1,0,0,0,1 @ F,0,0,1,0,0.26458335,0,1"
       radius="0"
       unit="px"
       method="auto"
       mode="F"
       chamfer_steps="1"
       flexible="false"
       use_knot_distance="true"
       apply_no_radius="true"
       apply_with_radius="true"
       only_selected="false"
       hide_knots="false" />
    <inkscape:path-effect
       effect="fillet_chamfer"
       id="path-effect12"
       is_visible="true"
       lpeversion="1"
       nodesatellites_param="F,0,1,1,0,0.13293385,0,1 @ F,0,0,1,0,0,0,1 @ F,0,1,1,0,0.13293385,0,1 @ F,0,0,1,0,0.26458335,0,1 @ F,0,0,1,0,0,0,1 @ F,0,0,1,0,0.26458335,0,1"
       radius="0"
       unit="px"
       method="auto"
       mode="F"
       chamfer_steps="1"
       flexible="false"
       use_knot_distance="true"
       apply_no_radius="true"
       apply_with_radius="true"
       only_selected="false"
       hide_knots="false" />
    <inkscape:path-effect
       effect="bspline"
       id="path-effect10"
       is_visible="true"
       lpeversion="1.3"
       weight="33.333333"
       steps="2"
       helper_size="0"
       apply_no_weight="true"
       apply_with_weight="true"
       only_selected="false"
       uniform="false" />
    <inkscape:path-effect
       effect="bspline"
       id="path-effect3"
       is_visible="true"
       lpeversion="1.3"
       weight="33.333333"
       steps="2"
       helper_size="0"
       apply_no_weight="true"
       apply_with_weight="true"
       only_selected="false"
       uniform="false" />
    <inkscape:path-effect
       effect="bspline"
       id="path-effect2"
       is_visible="true"
       lpeversion="1.3"
       weight="33.333333"
       steps="2"
       helper_size="0"
       apply_no_weight="true"
       apply_with_weight="true"
       only_selected="false"
       uniform="false" />
    <inkscape:path-effect
       effect="fill_between_many"
       method="originald"
       linkedpaths="#path56,0,1|"
       id="path-effect56" />
    <clipPath
       clipPathUnits="userSpaceOnUse"
       id="clipPath62">
      <path
         id="lpe_path-effect64"
         style="opacity:1;fill:#808080;fill-opacity:1;stroke:none;stroke-width:0.264583;stroke-linecap:butt;stroke-linejoin:round;stroke-dasharray:none;stroke-opacity:1;paint-order:stroke fill markers"
         class="powerclip"
         d="M -0.7666669,-2.6187502 H 11.614583 V 13.466667 H -0.7666669 Z M 2.3812499,3.4395831 V 5.2916663 H 6.0854163 V 3.4395831 Z" />
    </clipPath>
    <clipPath
       clipPathUnits="userSpaceOnUse"
       id="clipPath63">
      <path
         id="lpe_path-effect65"
         style="opacity:1;fill:#808080;fill-opacity:1;stroke:none;stroke-width:0.264583;stroke-linecap:butt;stroke-linejoin:round;stroke-dasharray:none;stroke-opacity:1;paint-order:stroke fill markers"
         class="powerclip"
         d="M -3.1479166,-2.6187502 H 9.2333333 V 13.466667 H -3.1479166 Z M 2.3812499,3.4395831 V 5.2916663 H 6.0854163 V 3.4395831 Z" />
    </clipPath>
    <clipPath
       clipPathUnits="userSpaceOnUse"
       id="clipPath65">
      <path
         id="lpe_path-effect66"
         style="opacity:1;fill:#808080;fill-opacity:1;stroke:none;stroke-width:0.264583;stroke-linecap:butt;stroke-linejoin:round;stroke-dasharray:none;stroke-opacity:1;paint-order:stroke fill markers"
         class="powerclip"
         d="M -3.1479167,-2.61875 H 11.614583 V 13.466667 H -3.1479167 Z M 2.3812499,3.3072913 V 5.5562494 H 6.0854163 V 3.3072913 Z" />
    </clipPath>
  </defs>
  <g
     inkscape:label="Layer 1"
     inkscape:groupmode="layer"
     id="layer1"
     style="display:none;opacity:0.4"
     sodipodi:insensitive="true">
    <rect
       style="fill:#999999;stroke-width:0.264583;stroke-linejoin:bevel"
       id="rect1"
       width="4.2333331"
       height="5.2916665"
       x="2.1166666"
       y="3.1749997"
       ry="0.26458344" />
    <path
       style="fill:#999999;stroke-width:0.264583;stroke-linejoin:bevel"
       id="rect2"
       width="0.52770126"
       height="0.52916652"
       x="3.9687498"
       y="2.6458333"
       inkscape:path-effect="#path-effect15"
       sodipodi:type="rect"
       d="M 4.1004479,2.6458333 H 4.366068 a 0.13038305,0.13038305 45 0 1 0.130383,0.130383 V 3.1749998 H 3.9687498 V 2.7775314 A 0.13169816,0.13169816 135 0 1 4.1004479,2.6458333 Z" />
    <path
       style="fill:none;stroke:#000000;stroke-width:0.264583;stroke-linejoin:bevel;stroke-dasharray:none;stroke-opacity:1"
       d="m 4.233333,2.6458332 c 0,-0.1763889 0,-0.3527778 -0.1763924,-0.6173646 C 3.8805482,1.7638817 3.5277775,1.4111111 3.1749963,1.2346647 2.8222151,1.0582184 2.4694443,1.0581034 2.116663,0.88171101 1.7638817,0.7053186 1.411111,0.35266282 1.0583333,0"
       id="path2"
       inkscape:path-effect="#path-effect3"
       inkscape:original-d="m 4.233333,2.6458332 c 0,-0.1763889 0,-0.3527778 0,-0.5291667 C 3.8805482,1.7638817 3.5277776,1.411111 3.1749997,1.0583333 2.8222151,1.0582183 2.4694443,1.0581034 2.1166665,1.0579885 1.7638817,0.70531859 1.411111,0.35266283 1.0583333,0"
       transform="matrix(1.0500264,0,0,1.0627704,-0.21885824,-0.16561548)" />
    <circle
       style="fill:#000000;fill-opacity:1;stroke:none;stroke-width:0.396874;stroke-linejoin:bevel;stroke-dasharray:none;stroke-opacity:1"
       id="circle3"
       cx="4.2333331"
       cy="4.2333331"
       r="0.79374999" />
    <path
       id="path12"
       style="fill:#000000;fill-opacity:1;stroke:none;stroke-width:0.262388;stroke-linecap:butt;stroke-linejoin:round;stroke-dasharray:none;stroke-opacity:1;paint-order:stroke fill markers"
       d="m 4.9904146,3.5318067 c 0.1761607,0.1922983 0.2751058,0.4415138 0.275284,0.7015264 -1.782e-4,0.2600175 -0.099127,0.5092375 -0.275294,0.7015374 -0.049556,0.054095 -0.036097,0.092213 0.03732,0.092213 H 5.8208329 A 0.26458335,0.26458335 135 0 0 6.0854163,4.7624997 l 0,-0.5291666 V 3.7041666 A 0.26458335,0.26458335 45 0 0 5.8208329,3.4395832 l -0.7931078,0 c -0.073417,0 -0.086872,0.038122 -0.03731,0.092224 z"
       inkscape:path-effect="#path-effect12"
       inkscape:original-d="m 4.8947913,3.4395832 a 1.0931064,1.0583333 0 0 1 0.3709073,0.7937499 1.0931064,1.0583333 0 0 1 -0.3709073,0.79375 h 1.190625 v -0.79375 -0.7937499 z" />
    <rect
       style="fill:#000000;fill-opacity:1;stroke:none;stroke-width:0.264583;stroke-linecap:butt;stroke-linejoin:round;stroke-dasharray:none;stroke-opacity:1;paint-order:stroke fill markers"
       id="rect10"
       width="3.7041664"
       height="0.26458332"
       x="2.3812499"
       y="5.5562501"
       ry="0.13229166" />
    <path
       id="path13"
       style="display:inline;fill:#000000;fill-opacity:1;stroke:none;stroke-width:0.262388;stroke-linecap:butt;stroke-linejoin:round;stroke-dasharray:none;stroke-opacity:1;paint-order:stroke fill markers"
       d="m 4.9904146,3.5318067 c 0.1761607,0.1922983 0.2751058,0.4415138 0.275284,0.7015264 -1.782e-4,0.2600175 -0.099127,0.5092375 -0.275294,0.7015374 -0.049556,0.054095 -0.036097,0.092213 0.03732,0.092213 H 5.8208329 A 0.26458335,0.26458335 135 0 0 6.0854163,4.7624997 l 0,-0.5291666 V 3.7041666 A 0.26458335,0.26458335 45 0 0 5.8208329,3.4395832 l -0.7931078,0 c -0.073417,0 -0.086872,0.038122 -0.03731,0.092224 z"
       inkscape:path-effect="#path-effect14"
       inkscape:original-d="m 4.8947913,3.4395832 a 1.0931064,1.0583333 0 0 1 0.3709073,0.7937499 1.0931064,1.0583333 0 0 1 -0.3709073,0.79375 h 1.190625 v -0.79375 -0.7937499 z"
       transform="matrix(-1,0,0,1,8.4666662,-4.7467422e-8)" />
  </g>
  <g
     inkscape:groupmode="layer"
     id="layer3"
     inkscape:label="Layer 3"
     style="display:inline">
    <rect
       style="opacity:1;fill:#e6e6e6;fill-opacity:1;stroke:none;stroke-width:0.257884;stroke-linecap:butt;stroke-linejoin:round;stroke-dasharray:none;stroke-opacity:1;paint-order:stroke fill markers"
       id="rect45"
       width="4.2333331"
       height="5.0270834"
       x="2.1166666"
       y="3.1749997" />
    <rect
       style="opacity:1;fill:#e6e6e6;fill-opacity:1;stroke:none;stroke-width:0.264583;stroke-linecap:butt;stroke-linejoin:round;stroke-dasharray:none;stroke-opacity:1;paint-order:stroke fill markers"
       id="rect46"
       width="0.52916664"
       height="0.52916664"
       x="3.9687498"
       y="2.6458333" />
  </g>
  <g
     inkscape:groupmode="layer"
     id="g62"
     inkscape:label="Layer 2 copy"
     style="display:inline">
    <path
       id="path61"
       clip-path="url(#clipPath65)"
       style="opacity:1;fill:#000000;fill-opacity:1;stroke:none;stroke-width:0.264583;stroke-linecap:butt;stroke-linejoin:round;stroke-dasharray:none;stroke-opacity:1;paint-order:stroke fill markers"
       d="M 3.96875 2.38125 L 3.96875 2.6458333 L 4.2333333 2.6458333 L 4.4979166 2.6458333 L 4.4979166 2.38125 L 4.2333333 2.38125 L 3.96875 2.38125 z M 4.4979166 2.6458333 L 4.4979166 2.9104166 L 4.4979166 3.175 L 6.0854166 3.175 L 6.0854166 2.9104166 L 4.7625 2.9104166 L 4.7625 2.6458333 L 4.4979166 2.6458333 z M 6.0854166 3.175 L 6.0854166 3.4395833 L 6.35 3.4395833 L 6.35 3.175 L 6.0854166 3.175 z M 6.35 3.4395833 L 6.35 7.9374999 L 6.6145833 7.9374999 L 6.6145833 3.4395833 L 6.35 3.4395833 z M 6.35 7.9374999 L 6.0854166 7.9374999 L 6.0854166 8.2020833 L 6.35 8.2020833 L 6.35 7.9374999 z M 6.0854166 8.2020833 L 4.2333333 8.2020833 L 2.38125 8.2020833 L 2.38125 8.4666666 L 4.2333333 8.4666666 L 6.0854166 8.4666666 L 6.0854166 8.2020833 z M 2.38125 8.2020833 L 2.38125 7.9374999 L 2.1166667 7.9374999 L 2.1166667 8.2020833 L 2.38125 8.2020833 z M 2.1166667 7.9374999 L 2.1166667 3.4395833 L 1.8520833 3.4395833 L 1.8520833 7.9374999 L 2.1166667 7.9374999 z M 2.1166667 3.4395833 L 2.38125 3.4395833 L 2.38125 3.175 L 2.1166667 3.175 L 2.1166667 3.4395833 z M 2.38125 3.175 L 3.96875 3.175 L 3.96875 2.9104166 L 3.96875 2.6458333 L 3.7041666 2.6458333 L 3.7041666 2.9104166 L 2.38125 2.9104166 L 2.38125 3.175 z M 2.6458333 3.4395833 L 2.6458333 3.7041666 L 2.38125 3.7041666 L 2.38125 4.7625 L 2.6458333 4.7625 L 2.6458333 5.0270833 L 3.175 5.0270833 L 3.4395833 5.0270833 L 3.4395833 4.7625 L 3.175 4.7625 L 3.175 3.7041666 L 3.4395833 3.7041666 L 3.4395833 3.4395833 L 3.175 3.4395833 L 2.6458333 3.4395833 z M 3.96875 3.4395833 L 3.96875 3.7041666 L 3.7041666 3.7041666 L 3.7041666 3.96875 L 3.4395833 3.96875 L 3.4395833 4.4979166 L 3.7041666 4.4979166 L 3.7041666 4.7625 L 3.96875 4.7625 L 3.96875 5.0270833 L 4.2333333 5.0270833 L 4.4979166 5.0270833 L 4.4979166 4.7625 L 4.7625 4.7625 L 4.7625 4.4979166 L 5.0270833 4.4979166 L 5.0270833 3.96875 L 4.7625 3.96875 L 4.7625 3.7041666 L 4.4979166 3.7041666 L 4.4979166 3.4395833 L 4.2333333 3.4395833 L 3.96875 3.4395833 z M 5.0270833 3.4395833 L 5.0270833 3.7041666 L 5.2916666 3.7041666 L 5.2916666 4.7625 L 5.0270833 4.7625 L 5.0270833 5.0270833 L 5.2916666 5.0270833 L 5.8208333 5.0270833 L 5.8208333 4.7625 L 6.0854166 4.7625 L 6.0854166 3.7041666 L 5.8208333 3.7041666 L 5.8208333 3.4395833 L 5.2916666 3.4395833 L 5.0270833 3.4395833 z M 2.38125 5.55625 L 2.38125 5.8208333 L 4.2333333 5.8208333 L 6.0854166 5.8208333 L 6.0854166 5.55625 L 4.2333333 5.55625 L 2.38125 5.55625 z " />
  </g>
  <g
     inkscape:groupmode="layer"
     id="layer6"
     inkscape:label="Layer 5"
     style="display:inline">
    <path
       id="rect57"
       style="opacity:1;fill:#ffcc00;fill-opacity:1;stroke:none;stroke-width:0.264583;stroke-linecap:butt;stroke-linejoin:round;stroke-dasharray:none;stroke-opacity:1;paint-order:stroke fill markers"
       d="M 2.6458333,3.4395833 V 3.7041666 H 2.38125 V 4.7625 h 0.2645833 v 0.2645833 h 0.79375 V 4.7625 H 3.175 V 3.7041666 H 3.4395833 V 3.4395833 Z" />
    <path
       id="path59"
       style="opacity:1;fill:#000000;fill-opacity:1;stroke:none;stroke-width:0.264583;stroke-linecap:butt;stroke-linejoin:round;stroke-dasharray:none;stroke-opacity:1;paint-order:stroke fill markers"
       d="M 5.8208331,3.4395832 V 3.7041665 H 6.0854164 V 4.7624999 H 5.8208331 v 0.2645833 h -0.79375 V 4.7624999 H 5.2916664 V 3.7041665 H 5.0270831 V 3.4395832 Z" />
    <path
       id="rect61"
       style="opacity:1;stroke-width:0.264583;stroke-linejoin:round;paint-order:stroke fill markers"
       d="M 3.96875,3.4395833 V 3.7041666 H 3.7041666 V 3.96875 H 3.4395833 V 4.2333333 4.4979166 H 3.7041666 V 4.7625 H 3.96875 V 5.0270833 H 4.4979166 V 4.7625 H 4.7625 V 4.4979166 H 5.0270833 V 4.2333333 3.96875 H 4.7625 V 3.7041666 H 4.4979166 V 3.4395833 Z" />
  </g>
  <g
     inkscape:groupmode="layer"
     id="layer5"
     inkscape:label="Layer 4"
     style="display:inline">
    <rect
       style="opacity:1;fill:#000000;fill-opacity:1;stroke:none;stroke-width:0.264583;stroke-linecap:butt;stroke-linejoin:round;stroke-dasharray:none;stroke-opacity:1;paint-order:stroke fill markers"
       id="rect47"
       width="0.52916664"
       height="0.26458332"
       x="3.9687498"
       y="2.1166666" />
    <rect
       style="opacity:1;fill:#000000;fill-opacity:1;stroke:none;stroke-width:0.264583;stroke-linecap:butt;stroke-linejoin:round;stroke-dasharray:none;stroke-opacity:1;paint-order:stroke fill markers"
       id="rect48"
       width="0.26458332"
       height="0.26458332"
       x="3.9687498"
       y="1.8520832" />
    <rect
       style="opacity:1;fill:#000000;fill-opacity:1;stroke:none;stroke-width:0.264583;stroke-linecap:butt;stroke-linejoin:round;stroke-dasharray:none;stroke-opacity:1;paint-order:stroke fill markers"
       id="rect49"
       width="0.26458332"
       height="0.26458332"
       x="3.9687498"
       y="1.5874999" />
    <rect
       style="opacity:1;fill:#000000;fill-opacity:1;stroke:none;stroke-width:0.265246;stroke-linecap:butt;stroke-linejoin:round;stroke-dasharray:none;stroke-opacity:1;paint-order:stroke fill markers"
       id="rect50"
       width="0.79375005"
       height="0.26458332"
       x="3.4395831"
       y="1.3229166" />
    <rect
       style="opacity:1;fill:#000000;fill-opacity:1;stroke:none;stroke-width:0.263556;stroke-linecap:butt;stroke-linejoin:round;stroke-dasharray:none;stroke-opacity:1;paint-order:stroke fill markers"
       id="rect51"
       width="0.79375023"
       height="0.26458335"
       x="2.9104166"
       y="1.0583333" />
    <rect
       style="opacity:1;fill:#000000;fill-opacity:1;stroke:none;stroke-width:0.264583;stroke-linecap:butt;stroke-linejoin:round;stroke-dasharray:none;stroke-opacity:1;paint-order:stroke fill markers"
       id="rect52"
       width="1.0583333"
       height="0.26458332"
       x="2.1166666"
       y="0.79374993" />
    <rect
       style="opacity:1;fill:#000000;fill-opacity:1;stroke:none;stroke-width:0.264583;stroke-linecap:butt;stroke-linejoin:round;stroke-dasharray:none;stroke-opacity:1;paint-order:stroke fill markers"
       id="rect53"
       width="0.26458332"
       height="0.52916664"
       x="1.8520832"
       y="0.52916664" />
    <rect
       style="opacity:1;fill:#000000;fill-opacity:1;stroke:none;stroke-width:0.264583;stroke-linecap:butt;stroke-linejoin:round;stroke-dasharray:none;stroke-opacity:1;paint-order:stroke fill markers"
       id="rect54"
       width="0.26458332"
       height="0.26458332"
       x="1.5874999"
       y="0.52916664" />
    <rect
       style="opacity:1;fill:#000000;fill-opacity:1;stroke:none;stroke-width:0.264583;stroke-linecap:butt;stroke-linejoin:round;stroke-dasharray:none;stroke-opacity:1;paint-order:stroke fill markers"
       id="rect55"
       width="0.52916664"
       height="0.26458332"
       x="1.3229166"
       y="0.26458332" />
    <rect
       style="opacity:1;fill:#000000;fill-opacity:1;stroke:none;stroke-width:0.264583;stroke-linecap:butt;stroke-linejoin:round;stroke-dasharray:none;stroke-opacity:1;paint-order:stroke fill markers"
       id="rect56"
       width="0.26458332"
       height="0.26458332"
       x="1.0583333"
       y="0" />
    <rect
       style="opacity:1;fill:#000000;fill-opacity:1;stroke:none;stroke-width:0.264583;stroke-linecap:butt;stroke-linejoin:round;stroke-dasharray:none;stroke-opacity:1;paint-order:stroke fill markers"
       id="rect71"
       width="0.26458332"
       height="0.26458332"
       x="1.3229166"
       y="0" />
  </g>
</svg>