<?xml version="1.0" encoding="UTF-8" standalone="no"?>
<!-- Created with Inkscape (http://www.inkscape.org/) -->

<svg
   width="31.999998"
   height="31.999998"
   viewBox="0 0 8.4666661 8.4666661"
   version="1.1"
   id="svg1"
   xml:space="preserve"
   xmlns="http://www.w3.org/2000/svg"
   xmlns:svg="http://www.w3.org/2000/svg"><defs
     id="defs1" /><g
     id="layer21"><g
       id="layer22"><path
         id="path387"
         style="stroke-width:0.0296382;stroke-linejoin:round;paint-order:stroke fill markers"
         d="m 2.1166655,2.1166676 h -0.529166 v 0.2728498 h 0.529166 z m 4.2333337,2.645833 H 5.8208325 V 5.0270839 H 6.3499992 Z M 6.0854165,4.497917 H 5.2916666 V 4.7625003 H 6.0854165 Z M 5.5562494,4.2333334 H 5.0270827 V 4.4979167 H 5.5562494 Z M 5.2916663,3.9687508 h -0.79375 v 0.2645833 h 0.79375 z M 4.7624996,3.7041672 H 4.2333329 V 3.9687505 H 4.7624996 Z M 4.2333329,3.4395836 H 3.7041662 V 3.7041669 H 4.2333329 Z M 3.9687498,3.175001 H 3.4395831 V 3.4395843 H 3.9687498 Z M 3.4395826,2.9104174 H 2.9104159 V 3.1750007 H 3.4395826 Z M 3.174999,2.6458338 h -0.79375 v 0.2645833 h 0.79375 z M 2.6458323,2.3729819 H 2.3812495 v 0.2728529 h 0.2645828 z m -0.2645832,0.00827 H 2.1166657 V 2.6458338 H 2.3812491 Z M 1.5874995,1.852084 H 1.3229159 v 0.2645833 h 0.2645836 z m -0.5291672,0 H 0.79374899 V 2.1166673 H 1.0583323 Z m 0.2645836,0 H 1.0583326 V 2.3812506 H 1.3229159 Z M 1.5874995,2.3812512 H 1.3229162 V 3.1750011 H 1.5874995 Z M 1.8520821,2.9104174 H 1.5874988 V 3.439584 H 1.8520821 Z M 2.1166655,3.175001 H 1.8520822 V 3.9687509 H 2.1166655 Z M 2.3812491,3.7041672 H 2.1166657 V 4.4979171 H 2.3812491 Z M 2.6458328,4.2333334 H 2.3812495 v 0.79375 H 2.6458328 Z M 2.9104164,4.7625006 H 2.645833 V 5.5562505 H 2.9104164 Z M 3.174999,5.0270837 H 2.9104157 V 5.8208336 H 3.174999 Z M 3.4395826,5.5562504 H 3.1749993 V 6.3500003 H 3.4395826 Z M 3.7041657,6.0854166 H 3.4395824 v 0.79375 H 3.7041657 Z M 3.9687498,6.6145833 H 3.7041665 V 7.1437496 H 3.9687498 Z M 4.2333329,6.8791664 H 3.9687495 V 7.4083331 H 4.2333329 Z M 4.4979165,7.14375 H 4.2333331 V 7.4083333 H 4.4979165 Z M 4.7624996,6.8791664 H 4.4979162 V 7.1437498 H 4.7624996 Z M 5.0270832,6.6145833 H 4.7624998 V 7.14375 H 5.0270832 Z M 5.2916663,6.3500002 H 5.0270829 V 6.8791669 H 5.2916663 Z M 5.5562494,6.0854166 H 5.2916661 V 6.6145833 H 5.5562494 Z M 6.3499992,6.8791664 H 6.0854159 V 7.1437498 H 6.3499992 Z M 6.0854165,6.6145833 H 5.8208332 V 7.14375 H 6.0854165 Z M 5.820833,5.820834 H 5.5562496 V 6.8791673 H 5.820833 Z M 6.0854165,5.5562504 H 5.8208332 V 6.085417 H 6.0854165 Z M 6.3499992,5.2916673 H 6.0854159 v 0.5291666 h 0.2645833 z m 0.2645836,0 H 6.3499995 V 7.1437505 H 6.6145828 Z M 6.8791664,5.0270837 h -0.79375 V 5.291667 h 0.79375 z M 7.1437499,4.7625006 H 6.6145833 V 5.0270839 H 7.1437499 Z M 7.4083326,4.497917 H 6.8791659 V 4.7625003 H 7.4083326 Z M 7.6729162,4.2333334 H 7.1437495 v 0.2645833 h 0.5291667 z m 0,-0.2645826 H 7.4083328 V 4.2333341 H 7.6729162 Z M 7.9374993,3.4395836 H 7.672916 v 0.7937499 h 0.2645833 z m 0,-0.2645826 H 6.879166 V 3.4395843 H 7.9374993 Z M 7.1437499,2.9104174 H 6.0854167 V 3.1750007 H 7.1437499 Z M 6.3499992,2.6458348 H 5.0270826 V 2.9104181 H 6.3499992 Z M 5.2916663,2.3812512 H 4.233333 V 2.6458345 H 5.2916663 Z M 4.2333329,2.1166676 H 3.1749996 V 2.3812509 H 4.2333329 Z M 3.4395826,1.852084 H 2.3812495 v 0.2645833 h 1.0583331 z m -1.0583335,0 H 2.1166657 v 0.2645833 h 0.2645834 z m -10e-7,-0.2645826 H 0.79374839 V 1.8520847 H 2.3812481 Z M 1.3229159,1.3229178 H 0.79374939 V 1.5875011 H 1.3229159 Z m -0.52916711,0 h -0.2645833 v 0.2645833 h 0.2645833 z" /></g><g
       id="layer23"><path
         style="fill:#008066;fill-opacity:1;stroke:none;stroke-width:0.0206375;stroke-linejoin:round;stroke-opacity:1;paint-order:stroke fill markers"
         d="m 6.0854166,5.8208332 v 0.2645833 h -0.264583 v 0.5291667 h 0.264583 v 0.2645833 h 0.264583 V 5.8208332 Z"
         id="path394" /><path
         id="path388"
         style="fill:#00ffcc;fill-opacity:1;stroke:none;stroke-width:0.0206375;stroke-linejoin:round;stroke-opacity:1;paint-order:stroke fill markers"
         d="M 4.2333336,2.3812499 H 3.1749996 V 2.1166665 h -0.79375 -0.264583 v 0.2645834 h 0.264583 v -0.00827 h 0.264584 v 0.2728533 h 0.529166 v 0.2645833 h 0.264584 v 0.2645833 h 0.529166 v 0.2645834 h 0.264584 v 0.2645833 h 0.529166 v 0.2645833 h 0.529167 v 0.2645834 h 0.264583 v 0.2645833 h 0.529167 v 0.2645833 h 0.264583 v 0.2645834 h 0.264584 V 4.7624998 h 0.264583 V 4.4979165 h 0.264583 V 4.2333332 h 0.264584 V 3.9687498 h 0.264583 V 3.4395832 h -0.79375 V 3.1749998 h -0.79375 V 2.9104165 H 5.0270836 V 2.6458332 h -0.79375 z m 0,1.3229166 H 3.7041666 V 3.4395832 H 3.4395836 V 3.1749998 H 2.9104166 V 2.9104165 H 2.3812496 V 2.6458332 H 2.1166666 V 2.3895181 h -0.529167 v 0.5208984 h 0.264584 v 0.2645833 h 0.264583 v 0.5291667 h 0.264583 v 0.5291667 h 0.264584 v 0.5291666 h 0.264583 v 0.2645834 h 0.264583 v 0.5291666 h 0.264584 v 0.5291667 h 0.264583 v 0.5291667 h 0.264583 v 0.2645833 h 0.264584 v 0.2645833 h 0.264583 V 6.8791665 h 0.264583 V 6.6145832 h 0.264584 V 6.3499998 h 0.264583 V 6.0854165 h 0.264583 V 5.8208332 h 0.264584 V 5.5562498 h 0.264583 V 5.2916665 5.0270832 H 5.8208336 V 4.7624998 H 5.2916666 V 4.4979165 H 5.0270836 V 4.2333332 H 4.4979166 V 3.9687498 h -0.264583 z m -2.116667,-1.5875 V 1.8520832 h -0.529167 v 0.2645833 z m -0.529167,0 h -0.264583 v 0.2645834 h 0.264583 z" /></g></g></svg>
