<svg id="visual" viewBox="0 0 1920 1080" width="1920" height="1080" xmlns="http://www.w3.org/2000/svg" xmlns:xlink="http://www.w3.org/1999/xlink" version="1.1"><rect x="0" y="0" width="1920" height="1080" fill="#000000"></rect><path d="M0 249L35.5 245.5C71 242 142 235 213.2 216.3C284.3 197.7 355.7 167.3 426.8 196.3C498 225.3 569 313.7 640 364C711 414.3 782 426.7 853.2 392.5C924.3 358.3 995.7 277.7 1066.8 245.2C1138 212.7 1209 228.3 1280 254.7C1351 281 1422 318 1493.2 351.3C1564.3 384.7 1635.7 414.3 1706.8 403C1778 391.7 1849 339.3 1884.5 313.2L1920 287L1920 1081L1884.5 1081C1849 1081 1778 1081 1706.8 1081C1635.7 1081 1564.3 1081 1493.2 1081C1422 1081 1351 1081 1280 1081C1209 1081 1138 1081 1066.8 1081C995.7 1081 924.3 1081 853.2 1081C782 1081 711 1081 640 1081C569 1081 498 1081 426.8 1081C355.7 1081 284.3 1081 213.2 1081C142 1081 71 1081 35.5 1081L0 1081Z" fill="#141414"></path><path d="M0 274L35.5 309.3C71 344.7 142 415.3 213.2 463.5C284.3 511.7 355.7 537.3 426.8 523.2C498 509 569 455 640 453.5C711 452 782 503 853.2 518.3C924.3 533.7 995.7 513.3 1066.8 473.8C1138 434.3 1209 375.7 1280 341.5C1351 307.3 1422 297.7 1493.2 295C1564.3 292.3 1635.7 296.7 1706.8 328.3C1778 360 1849 419 1884.5 448.5L1920 478L1920 1081L1884.5 1081C1849 1081 1778 1081 1706.8 1081C1635.7 1081 1564.3 1081 1493.2 1081C1422 1081 1351 1081 1280 1081C1209 1081 1138 1081 1066.8 1081C995.7 1081 924.3 1081 853.2 1081C782 1081 711 1081 640 1081C569 1081 498 1081 426.8 1081C355.7 1081 284.3 1081 213.2 1081C142 1081 71 1081 35.5 1081L0 1081Z" fill="#111111"></path><path d="M0 606L35.5 617.8C71 629.7 142 653.3 213.2 662.7C284.3 672 355.7 667 426.8 630.2C498 593.3 569 524.7 640 495.8C711 467 782 478 853.2 494.2C924.3 510.3 995.7 531.7 1066.8 530.2C1138 528.7 1209 504.3 1280 501.5C1351 498.7 1422 517.3 1493.2 502C1564.3 486.7 1635.7 437.3 1706.8 450.2C1778 463 1849 538 1884.5 575.5L1920 613L1920 1081L1884.5 1081C1849 1081 1778 1081 1706.8 1081C1635.7 1081 1564.3 1081 1493.2 1081C1422 1081 1351 1081 1280 1081C1209 1081 1138 1081 1066.8 1081C995.7 1081 924.3 1081 853.2 1081C782 1081 711 1081 640 1081C569 1081 498 1081 426.8 1081C355.7 1081 284.3 1081 213.2 1081C142 1081 71 1081 35.5 1081L0 1081Z" fill="#0d0d0d"></path><path d="M0 553L35.5 585.7C71 618.3 142 683.7 213.2 706.8C284.3 730 355.7 711 426.8 724.2C498 737.3 569 782.7 640 760.2C711 737.7 782 647.3 853.2 607.5C924.3 567.7 995.7 578.3 1066.8 573.3C1138 568.3 1209 547.7 1280 563.7C1351 579.7 1422 632.3 1493.2 663.8C1564.3 695.3 1635.7 705.7 1706.8 690.7C1778 675.7 1849 635.3 1884.5 615.2L1920 595L1920 1081L1884.5 1081C1849 1081 1778 1081 1706.8 1081C1635.7 1081 1564.3 1081 1493.2 1081C1422 1081 1351 1081 1280 1081C1209 1081 1138 1081 1066.8 1081C995.7 1081 924.3 1081 853.2 1081C782 1081 711 1081 640 1081C569 1081 498 1081 426.8 1081C355.7 1081 284.3 1081 213.2 1081C142 1081 71 1081 35.5 1081L0 1081Z" fill="#090909"></path><path d="M0 723L35.5 721.7C71 720.3 142 717.7 213.2 708C284.3 698.3 355.7 681.7 426.8 682.3C498 683 569 701 640 701C711 701 782 683 853.2 697.7C924.3 712.3 995.7 759.7 1066.8 790.2C1138 820.7 1209 834.3 1280 844.2C1351 854 1422 860 1493.2 847.7C1564.3 835.3 1635.7 804.7 1706.8 808.5C1778 812.3 1849 850.7 1884.5 869.8L1920 889L1920 1081L1884.5 1081C1849 1081 1778 1081 1706.8 1081C1635.7 1081 1564.3 1081 1493.2 1081C1422 1081 1351 1081 1280 1081C1209 1081 1138 1081 1066.8 1081C995.7 1081 924.3 1081 853.2 1081C782 1081 711 1081 640 1081C569 1081 498 1081 426.8 1081C355.7 1081 284.3 1081 213.2 1081C142 1081 71 1081 35.5 1081L0 1081Z" fill="#040404"></path><path d="M0 977L35.5 964.3C71 951.7 142 926.3 213.2 932.3C284.3 938.3 355.7 975.7 426.8 961.8C498 948 569 883 640 859.3C711 835.7 782 853.3 853.2 864.7C924.3 876 995.7 881 1066.8 911.5C1138 942 1209 998 1280 1022.2C1351 1046.3 1422 1038.7 1493.2 1005C1564.3 971.3 1635.7 911.7 1706.8 914C1778 916.3 1849 980.7 1884.5 1012.8L1920 1045L1920 1081L1884.5 1081C1849 1081 1778 1081 1706.8 1081C1635.7 1081 1564.3 1081 1493.2 1081C1422 1081 1351 1081 1280 1081C1209 1081 1138 1081 1066.8 1081C995.7 1081 924.3 1081 853.2 1081C782 1081 711 1081 640 1081C569 1081 498 1081 426.8 1081C355.7 1081 284.3 1081 213.2 1081C142 1081 71 1081 35.5 1081L0 1081Z" fill="#000000"></path></svg>