<svg id="visual" viewBox="0 0 900 600" width="900" height="600" xmlns="http://www.w3.org/2000/svg" xmlns:xlink="http://www.w3.org/1999/xlink" version="1.1"><path d="M0 61L6.5 62C13 63 26 65 39 57C52 49 65 31 78 25C91 19 104 25 117.2 24C130.3 23 143.7 15 156.8 15C170 15 183 23 196 28C209 33 222 35 235 37C248 39 261 41 274 42C287 43 300 43 313 40C326 37 339 31 352 28C365 25 378 25 391 32C404 39 417 53 430.2 55C443.3 57 456.7 47 469.8 45C483 43 496 49 509 45C522 41 535 27 548 22C561 17 574 21 587 20C600 19 613 13 626 18C639 23 652 39 665 43C678 47 691 39 704 31C717 23 730 15 743.2 9.8C756.3 4.7 769.7 2.3 782.8 11.3C796 20.3 809 40.7 822 46.8C835 53 848 45 861 34.8C874 24.7 887 12.3 893.5 6.2L900 0L900 0L893.5 0C887 0 874 0 861 0C848 0 835 0 822 0C809 0 796 0 782.8 0C769.7 0 756.3 0 743.2 0C730 0 717 0 704 0C691 0 678 0 665 0C652 0 639 0 626 0C613 0 600 0 587 0C574 0 561 0 548 0C535 0 522 0 509 0C496 0 483 0 469.8 0C456.7 0 443.3 0 430.2 0C417 0 404 0 391 0C378 0 365 0 352 0C339 0 326 0 313 0C300 0 287 0 274 0C261 0 248 0 235 0C222 0 209 0 196 0C183 0 170 0 156.8 0C143.7 0 130.3 0 117.2 0C104 0 91 0 78 0C65 0 52 0 39 0C26 0 13 0 6.5 0L0 0Z" fill="#374b47"></path><path d="M0 79L6.5 89C13 99 26 119 39 110C52 101 65 63 78 60C91 57 104 89 117.2 93C130.3 97 143.7 73 156.8 63C170 53 183 57 196 62C209 67 222 73 235 87C248 101 261 123 274 130C287 137 300 129 313 124C326 119 339 117 352 108C365 99 378 83 391 83C404 83 417 99 430.2 105C443.3 111 456.7 107 469.8 101C483 95 496 87 509 77C522 67 535 55 548 54C561 53 574 63 587 59C600 55 613 37 626 46C639 55 652 91 665 105C678 119 691 111 704 93C717 75 730 47 743.2 36C756.3 25 769.7 31 782.8 47C796 63 809 89 822 89C835 89 848 63 861 53C874 43 887 49 893.5 52L900 55L900 0L893.5 5.8C887 11.7 874 23.3 861 33.2C848 43 835 51 822 45.2C809 39.3 796 19.7 782.8 10.7C769.7 1.7 756.3 3.3 743.2 8.2C730 13 717 21 704 29C691 37 678 45 665 41C652 37 639 21 626 16C613 11 600 17 587 18C574 19 561 15 548 20C535 25 522 39 509 43C496 47 483 41 469.8 43C456.7 45 443.3 55 430.2 53C417 51 404 37 391 30C378 23 365 23 352 26C339 29 326 35 313 38C300 41 287 41 274 40C261 39 248 37 235 35C222 33 209 31 196 26C183 21 170 13 156.8 13C143.7 13 130.3 21 117.2 22C104 23 91 17 78 23C65 29 52 47 39 55C26 63 13 61 6.5 60L0 59Z" fill="#2c3c39"></path><path d="M0 241L6.5 225C13 209 26 177 39 164C52 151 65 157 78 178C91 199 104 235 117.2 217C130.3 199 143.7 127 156.8 139C170 151 183 247 196 269C209 291 222 239 235 210C248 181 261 175 274 183C287 191 300 213 313 232C326 251 339 267 352 270C365 273 378 263 391 259C404 255 417 257 430.2 243C443.3 229 456.7 199 469.8 197C483 195 496 221 509 229C522 237 535 227 548 222C561 217 574 217 587 192C600 167 613 117 626 126C639 135 652 203 665 211C678 219 691 167 704 131C717 95 730 75 743.2 75C756.3 75 769.7 95 782.8 115C796 135 809 155 822 161C835 167 848 159 861 165C874 171 887 191 893.5 201L900 211L900 53L893.5 50C887 47 874 41 861 51C848 61 835 87 822 87C809 87 796 61 782.8 45C769.7 29 756.3 23 743.2 34C730 45 717 73 704 91C691 109 678 117 665 103C652 89 639 53 626 44C613 35 600 53 587 57C574 61 561 51 548 52C535 53 522 65 509 75C496 85 483 93 469.8 99C456.7 105 443.3 109 430.2 103C417 97 404 81 391 81C378 81 365 97 352 106C339 115 326 117 313 122C300 127 287 135 274 128C261 121 248 99 235 85C222 71 209 65 196 60C183 55 170 51 156.8 61C143.7 71 130.3 95 117.2 91C104 87 91 55 78 58C65 61 52 99 39 108C26 117 13 97 6.5 87L0 77Z" fill="#222e2c"></path><path d="M0 241L6.5 228C13 215 26 189 39 179C52 169 65 175 78 199C91 223 104 265 117.2 245C130.3 225 143.7 143 156.8 154C170 165 183 269 196 299C209 329 222 285 235 259C248 233 261 225 274 227C287 229 300 241 313 255C326 269 339 285 352 287C365 289 378 277 391 270C404 263 417 261 430.2 250C443.3 239 456.7 219 469.8 219C483 219 496 239 509 247C522 255 535 251 548 245C561 239 574 231 587 206C600 181 613 139 626 149C639 159 652 221 665 227C678 233 691 183 704 150C717 117 730 101 743.2 106C756.3 111 769.7 137 782.8 156C796 175 809 187 822 190C835 193 848 187 861 193C874 199 887 217 893.5 226L900 235L900 209L893.5 199C887 189 874 169 861 163C848 157 835 165 822 159C809 153 796 133 782.8 113C769.7 93 756.3 73 743.2 73C730 73 717 93 704 129C691 165 678 217 665 209C652 201 639 133 626 124C613 115 600 165 587 190C574 215 561 215 548 220C535 225 522 235 509 227C496 219 483 193 469.8 195C456.7 197 443.3 227 430.2 241C417 255 404 253 391 257C378 261 365 271 352 268C339 265 326 249 313 230C300 211 287 189 274 181C261 173 248 179 235 208C222 237 209 289 196 267C183 245 170 149 156.8 137C143.7 125 130.3 197 117.2 215C104 233 91 197 78 176C65 155 52 149 39 162C26 175 13 207 6.5 223L0 239Z" fill="#18201f"></path><path d="M0 277L6.5 265C13 253 26 229 39 224C52 219 65 233 78 250C91 267 104 287 117.2 266C130.3 245 143.7 183 156.8 194C170 205 183 289 196 319C209 349 222 325 235 302C248 279 261 257 274 256C287 255 300 275 313 291C326 307 339 319 352 326C365 333 378 335 391 327C404 319 417 301 430.2 283C443.3 265 456.7 247 469.8 250C483 253 496 277 509 282C522 287 535 273 548 269C561 265 574 271 587 246C600 221 613 165 626 171C639 177 652 245 665 253C678 261 691 209 704 176C717 143 730 129 743.2 130C756.3 131 769.7 147 782.8 172C796 197 809 231 822 245C835 259 848 253 861 256C874 259 887 271 893.5 277L900 283L900 233L893.5 224C887 215 874 197 861 191C848 185 835 191 822 188C809 185 796 173 782.8 154C769.7 135 756.3 109 743.2 104C730 99 717 115 704 148C691 181 678 231 665 225C652 219 639 157 626 147C613 137 600 179 587 204C574 229 561 237 548 243C535 249 522 253 509 245C496 237 483 217 469.8 217C456.7 217 443.3 237 430.2 248C417 259 404 261 391 268C378 275 365 287 352 285C339 283 326 267 313 253C300 239 287 227 274 225C261 223 248 231 235 257C222 283 209 327 196 297C183 267 170 163 156.8 152C143.7 141 130.3 223 117.2 243C104 263 91 221 78 197C65 173 52 167 39 177C26 187 13 213 6.5 226L0 239Z" fill="#0c1312"></path><path d="M0 307L6.5 304C13 301 26 295 39 303C52 311 65 333 78 341C91 349 104 343 117.2 309C130.3 275 143.7 213 156.8 226C170 239 183 327 196 365C209 403 222 391 235 361C248 331 261 283 274 288C287 293 300 351 313 369C326 387 339 365 352 372C365 379 378 415 391 411C404 407 417 363 430.2 337C443.3 311 456.7 303 469.8 309C483 315 496 335 509 339C522 343 535 331 548 328C561 325 574 331 587 320C600 309 613 281 626 291C639 301 652 349 665 338C678 327 691 257 704 212C717 167 730 147 743.2 155C756.3 163 769.7 199 782.8 228C796 257 809 279 822 285C835 291 848 281 861 293C874 305 887 339 893.5 356L900 373L900 281L893.5 275C887 269 874 257 861 254C848 251 835 257 822 243C809 229 796 195 782.8 170C769.7 145 756.3 129 743.2 128C730 127 717 141 704 174C691 207 678 259 665 251C652 243 639 175 626 169C613 163 600 219 587 244C574 269 561 263 548 267C535 271 522 285 509 280C496 275 483 251 469.8 248C456.7 245 443.3 263 430.2 281C417 299 404 317 391 325C378 333 365 331 352 324C339 317 326 305 313 289C300 273 287 253 274 254C261 255 248 277 235 300C222 323 209 347 196 317C183 287 170 203 156.8 192C143.7 181 130.3 243 117.2 264C104 285 91 265 78 248C65 231 52 217 39 222C26 227 13 251 6.5 263L0 275Z" fill="#050b0a"></path><path d="M0 373L6.5 362C13 351 26 329 39 329C52 329 65 351 78 363C91 375 104 377 117.2 351C130.3 325 143.7 271 156.8 284C170 297 183 377 196 404C209 431 222 405 235 371C248 337 261 295 274 302C287 309 300 365 313 384C326 403 339 385 352 397C365 409 378 451 391 451C404 451 417 409 430.2 387C443.3 365 456.7 363 469.8 367C483 371 496 381 509 384C522 387 535 383 548 387C561 391 574 403 587 384C600 365 613 315 626 317C639 319 652 373 665 370C678 367 691 307 704 271C717 235 730 223 743.2 222C756.3 221 769.7 231 782.8 250C796 269 809 297 822 309C835 321 848 317 861 337C874 357 887 401 893.5 423L900 445L900 371L893.5 354C887 337 874 303 861 291C848 279 835 289 822 283C809 277 796 255 782.8 226C769.7 197 756.3 161 743.2 153C730 145 717 165 704 210C691 255 678 325 665 336C652 347 639 299 626 289C613 279 600 307 587 318C574 329 561 323 548 326C535 329 522 341 509 337C496 333 483 313 469.8 307C456.7 301 443.3 309 430.2 335C417 361 404 405 391 409C378 413 365 377 352 370C339 363 326 385 313 367C300 349 287 291 274 286C261 281 248 329 235 359C222 389 209 401 196 363C183 325 170 237 156.8 224C143.7 211 130.3 273 117.2 307C104 341 91 347 78 339C65 331 52 309 39 301C26 293 13 299 6.5 302L0 305Z" fill="#050b0a"></path><path d="M0 415L6.5 398C13 381 26 347 39 342C52 337 65 361 78 373C91 385 104 385 117.2 365C130.3 345 143.7 305 156.8 319C170 333 183 401 196 420C209 439 222 409 235 373C248 337 261 295 274 306C287 317 300 381 313 407C326 433 339 421 352 431C365 441 378 473 391 467C404 461 417 417 430.2 396C443.3 375 456.7 377 469.8 384C483 391 496 403 509 410C522 417 535 419 548 423C561 427 574 433 587 411C600 389 613 339 626 338C639 337 652 385 665 386C678 387 691 341 704 308C717 275 730 255 743.2 247C756.3 239 769.7 243 782.8 263C796 283 809 319 822 330C835 341 848 327 861 347C874 367 887 421 893.5 448L900 475L900 443L893.5 421C887 399 874 355 861 335C848 315 835 319 822 307C809 295 796 267 782.8 248C769.7 229 756.3 219 743.2 220C730 221 717 233 704 269C691 305 678 365 665 368C652 371 639 317 626 315C613 313 600 363 587 382C574 401 561 389 548 385C535 381 522 385 509 382C496 379 483 369 469.8 365C456.7 361 443.3 363 430.2 385C417 407 404 449 391 449C378 449 365 407 352 395C339 383 326 401 313 382C300 363 287 307 274 300C261 293 248 335 235 369C222 403 209 429 196 402C183 375 170 295 156.8 282C143.7 269 130.3 323 117.2 349C104 375 91 373 78 361C65 349 52 327 39 327C26 327 13 349 6.5 360L0 371Z" fill="#0c1312"></path><path d="M0 481L6.5 464C13 447 26 413 39 406C52 399 65 419 78 423C91 427 104 415 117.2 396C130.3 377 143.7 351 156.8 370C170 389 183 453 196 480C209 507 222 497 235 468C248 439 261 391 274 386C287 381 300 419 313 441C326 463 339 469 352 482C365 495 378 515 391 518C404 521 417 507 430.2 481C443.3 455 456.7 417 469.8 415C483 413 496 447 509 460C522 473 535 465 548 459C561 453 574 449 587 437C600 425 613 405 626 403C639 401 652 417 665 407C678 397 691 361 704 347C717 333 730 341 743.2 333C756.3 325 769.7 301 782.8 313C796 325 809 373 822 391C835 409 848 397 861 406C874 415 887 445 893.5 460L900 475L900 473L893.5 446C887 419 874 365 861 345C848 325 835 339 822 328C809 317 796 281 782.8 261C769.7 241 756.3 237 743.2 245C730 253 717 273 704 306C691 339 678 385 665 384C652 383 639 335 626 336C613 337 600 387 587 409C574 431 561 425 548 421C535 417 522 415 509 408C496 401 483 389 469.8 382C456.7 375 443.3 373 430.2 394C417 415 404 459 391 465C378 471 365 439 352 429C339 419 326 431 313 405C300 379 287 315 274 304C261 293 248 335 235 371C222 407 209 437 196 418C183 399 170 331 156.8 317C143.7 303 130.3 343 117.2 363C104 383 91 383 78 371C65 359 52 335 39 340C26 345 13 379 6.5 396L0 413Z" fill="#18201f"></path><path d="M0 541L6.5 544C13 547 26 553 39 553C52 553 65 547 78 539C91 531 104 521 117.2 522C130.3 523 143.7 535 156.8 540C170 545 183 543 196 543C209 543 222 545 235 549C248 553 261 559 274 556C287 553 300 541 313 535C326 529 339 529 352 534C365 539 378 549 391 557C404 565 417 571 430.2 566C443.3 561 456.7 545 469.8 542C483 539 496 549 509 553C522 557 535 555 548 554C561 553 574 553 587 550C600 547 613 541 626 530C639 519 652 503 665 507C678 511 691 535 704 552C717 569 730 579 743.2 578C756.3 577 769.7 565 782.8 562C796 559 809 565 822 562C835 559 848 547 861 534C874 521 887 507 893.5 500L900 493L900 473L893.5 458C887 443 874 413 861 404C848 395 835 407 822 389C809 371 796 323 782.8 311C769.7 299 756.3 323 743.2 331C730 339 717 331 704 345C691 359 678 395 665 405C652 415 639 399 626 401C613 403 600 423 587 435C574 447 561 451 548 457C535 463 522 471 509 458C496 445 483 411 469.8 413C456.7 415 443.3 453 430.2 479C417 505 404 519 391 516C378 513 365 493 352 480C339 467 326 461 313 439C300 417 287 379 274 384C261 389 248 437 235 466C222 495 209 505 196 478C183 451 170 387 156.8 368C143.7 349 130.3 375 117.2 394C104 413 91 425 78 421C65 417 52 397 39 404C26 411 13 445 6.5 462L0 479Z" fill="#222e2c"></path><path d="M0 589L6.5 586C13 583 26 577 39 573C52 569 65 567 78 564C91 561 104 557 117.2 559C130.3 561 143.7 569 156.8 569C170 569 183 561 196 559C209 557 222 561 235 563C248 565 261 565 274 567C287 569 300 573 313 575C326 577 339 577 352 578C365 579 378 581 391 582C404 583 417 583 430.2 580C443.3 577 456.7 571 469.8 572C483 573 496 581 509 585C522 589 535 589 548 591C561 593 574 597 587 591C600 585 613 569 626 560C639 551 652 549 665 555C678 561 691 575 704 584C717 593 730 597 743.2 597C756.3 597 769.7 593 782.8 590C796 587 809 585 822 580C835 575 848 567 861 561C874 555 887 551 893.5 549L900 547L900 491L893.5 498C887 505 874 519 861 532C848 545 835 557 822 560C809 563 796 557 782.8 560C769.7 563 756.3 575 743.2 576C730 577 717 567 704 550C691 533 678 509 665 505C652 501 639 517 626 528C613 539 600 545 587 548C574 551 561 551 548 552C535 553 522 555 509 551C496 547 483 537 469.8 540C456.7 543 443.3 559 430.2 564C417 569 404 563 391 555C378 547 365 537 352 532C339 527 326 527 313 533C300 539 287 551 274 554C261 557 248 551 235 547C222 543 209 541 196 541C183 541 170 543 156.8 538C143.7 533 130.3 521 117.2 520C104 519 91 529 78 537C65 545 52 551 39 551C26 551 13 545 6.5 542L0 539Z" fill="#2c3c39"></path><path d="M0 601L6.5 601C13 601 26 601 39 601C52 601 65 601 78 601C91 601 104 601 117.2 601C130.3 601 143.7 601 156.8 601C170 601 183 601 196 601C209 601 222 601 235 601C248 601 261 601 274 601C287 601 300 601 313 601C326 601 339 601 352 601C365 601 378 601 391 601C404 601 417 601 430.2 601C443.3 601 456.7 601 469.8 601C483 601 496 601 509 601C522 601 535 601 548 601C561 601 574 601 587 601C600 601 613 601 626 601C639 601 652 601 665 601C678 601 691 601 704 601C717 601 730 601 743.2 601C756.3 601 769.7 601 782.8 601C796 601 809 601 822 601C835 601 848 601 861 601C874 601 887 601 893.5 601L900 601L900 545L893.5 547C887 549 874 553 861 559C848 565 835 573 822 578C809 583 796 585 782.8 588C769.7 591 756.3 595 743.2 595C730 595 717 591 704 582C691 573 678 559 665 553C652 547 639 549 626 558C613 567 600 583 587 589C574 595 561 591 548 589C535 587 522 587 509 583C496 579 483 571 469.8 570C456.7 569 443.3 575 430.2 578C417 581 404 581 391 580C378 579 365 577 352 576C339 575 326 575 313 573C300 571 287 567 274 565C261 563 248 563 235 561C222 559 209 555 196 557C183 559 170 567 156.8 567C143.7 567 130.3 559 117.2 557C104 555 91 559 78 562C65 565 52 567 39 571C26 575 13 581 6.5 584L0 587Z" fill="#374b47"></path></svg>