<svg id="visual" viewBox="0 0 1920 1080" width="1920" height="1080" xmlns="http://www.w3.org/2000/svg" xmlns:xlink="http://www.w3.org/1999/xlink" version="1.1"><rect x="0" y="0" width="1920" height="1080" fill="#000000"></rect><path d="M0 324L35.5 301.7C71 279.3 142 234.7 213.2 221.2C284.3 207.7 355.7 225.3 426.8 219.3C498 213.3 569 183.7 640 181.5C711 179.3 782 204.7 853.2 242.5C924.3 280.3 995.7 330.7 1066.8 357.3C1138 384 1209 387 1280 348.8C1351 310.7 1422 231.3 1493.2 197.7C1564.3 164 1635.7 176 1706.8 187.8C1778 199.7 1849 211.3 1884.5 217.2L1920 223L1920 1081L1884.5 1081C1849 1081 1778 1081 1706.8 1081C1635.7 1081 1564.3 1081 1493.2 1081C1422 1081 1351 1081 1280 1081C1209 1081 1138 1081 1066.8 1081C995.7 1081 924.3 1081 853.2 1081C782 1081 711 1081 640 1081C569 1081 498 1081 426.8 1081C355.7 1081 284.3 1081 213.2 1081C142 1081 71 1081 35.5 1081L0 1081Z" fill="#db2777"></path><path d="M0 287L35.5 310.2C71 333.3 142 379.7 213.2 423.8C284.3 468 355.7 510 426.8 494.8C498 479.7 569 407.3 640 394.8C711 382.3 782 429.7 853.2 464.7C924.3 499.7 995.7 522.3 1066.8 534.7C1138 547 1209 549 1280 543C1351 537 1422 523 1493.2 514.7C1564.3 506.3 1635.7 503.7 1706.8 465.3C1778 427 1849 353 1884.5 316L1920 279L1920 1081L1884.5 1081C1849 1081 1778 1081 1706.8 1081C1635.7 1081 1564.3 1081 1493.2 1081C1422 1081 1351 1081 1280 1081C1209 1081 1138 1081 1066.8 1081C995.7 1081 924.3 1081 853.2 1081C782 1081 711 1081 640 1081C569 1081 498 1081 426.8 1081C355.7 1081 284.3 1081 213.2 1081C142 1081 71 1081 35.5 1081L0 1081Z" fill="#b52274"></path><path d="M0 609L35.5 579.7C71 550.3 142 491.7 213.2 488.8C284.3 486 355.7 539 426.8 563.5C498 588 569 584 640 585.5C711 587 782 594 853.2 591.2C924.3 588.3 995.7 575.7 1066.8 564.8C1138 554 1209 545 1280 536.8C1351 528.7 1422 521.3 1493.2 511C1564.3 500.7 1635.7 487.3 1706.8 477C1778 466.7 1849 459.3 1884.5 455.7L1920 452L1920 1081L1884.5 1081C1849 1081 1778 1081 1706.8 1081C1635.7 1081 1564.3 1081 1493.2 1081C1422 1081 1351 1081 1280 1081C1209 1081 1138 1081 1066.8 1081C995.7 1081 924.3 1081 853.2 1081C782 1081 711 1081 640 1081C569 1081 498 1081 426.8 1081C355.7 1081 284.3 1081 213.2 1081C142 1081 71 1081 35.5 1081L0 1081Z" fill="#8f1f6c"></path><path d="M0 629L35.5 618.8C71 608.7 142 588.3 213.2 611C284.3 633.7 355.7 699.3 426.8 707C498 714.7 569 664.3 640 659.5C711 654.7 782 695.3 853.2 724.5C924.3 753.7 995.7 771.3 1066.8 767.8C1138 764.3 1209 739.7 1280 729.8C1351 720 1422 725 1493.2 707.7C1564.3 690.3 1635.7 650.7 1706.8 637.7C1778 624.7 1849 638.3 1884.5 645.2L1920 652L1920 1081L1884.5 1081C1849 1081 1778 1081 1706.8 1081C1635.7 1081 1564.3 1081 1493.2 1081C1422 1081 1351 1081 1280 1081C1209 1081 1138 1081 1066.8 1081C995.7 1081 924.3 1081 853.2 1081C782 1081 711 1081 640 1081C569 1081 498 1081 426.8 1081C355.7 1081 284.3 1081 213.2 1081C142 1081 71 1081 35.5 1081L0 1081Z" fill="#6a1c60"></path><path d="M0 717L35.5 726.3C71 735.7 142 754.3 213.2 770C284.3 785.7 355.7 798.3 426.8 804C498 809.7 569 808.3 640 820.7C711 833 782 859 853.2 872.2C924.3 885.3 995.7 885.7 1066.8 891.2C1138 896.7 1209 907.3 1280 886.8C1351 866.3 1422 814.7 1493.2 818.2C1564.3 821.7 1635.7 880.3 1706.8 909.7C1778 939 1849 939 1884.5 939L1920 939L1920 1081L1884.5 1081C1849 1081 1778 1081 1706.8 1081C1635.7 1081 1564.3 1081 1493.2 1081C1422 1081 1351 1081 1280 1081C1209 1081 1138 1081 1066.8 1081C995.7 1081 924.3 1081 853.2 1081C782 1081 711 1081 640 1081C569 1081 498 1081 426.8 1081C355.7 1081 284.3 1081 213.2 1081C142 1081 71 1081 35.5 1081L0 1081Z" fill="#471850"></path><path d="M0 991L35.5 973.3C71 955.7 142 920.3 213.2 908.3C284.3 896.3 355.7 907.7 426.8 905C498 902.3 569 885.7 640 869.2C711 852.7 782 836.3 853.2 865.7C924.3 895 995.7 970 1066.8 975.5C1138 981 1209 917 1280 900.2C1351 883.3 1422 913.7 1493.2 941.2C1564.3 968.7 1635.7 993.3 1706.8 988.7C1778 984 1849 950 1884.5 933L1920 916L1920 1081L1884.5 1081C1849 1081 1778 1081 1706.8 1081C1635.7 1081 1564.3 1081 1493.2 1081C1422 1081 1351 1081 1280 1081C1209 1081 1138 1081 1066.8 1081C995.7 1081 924.3 1081 853.2 1081C782 1081 711 1081 640 1081C569 1081 498 1081 426.8 1081C355.7 1081 284.3 1081 213.2 1081C142 1081 71 1081 35.5 1081L0 1081Z" fill="#28113d"></path></svg>