<?xml version="1.0" encoding="UTF-8" standalone="no"?>
<!-- Created with Inkscape (http://www.inkscape.org/) -->

<svg
   width="16"
   height="16"
   viewBox="0 0 4.2333332 4.2333333"
   version="1.1"
   id="svg1"
   inkscape:version="1.3 (0e150ed6c4, 2023-07-21)"
   sodipodi:docname="pixel-x-16.svg"
   xmlns:inkscape="http://www.inkscape.org/namespaces/inkscape"
   xmlns:sodipodi="http://sodipodi.sourceforge.net/DTD/sodipodi-0.dtd"
   xmlns="http://www.w3.org/2000/svg"
   xmlns:svg="http://www.w3.org/2000/svg">
  <sodipodi:namedview
     id="namedview1"
     pagecolor="#505050"
     bordercolor="#eeeeee"
     borderopacity="1"
     inkscape:showpageshadow="0"
     inkscape:pageopacity="0"
     inkscape:pagecheckerboard="0"
     inkscape:deskcolor="#505050"
     inkscape:document-units="mm"
     showgrid="true"
     inkscape:zoom="38.339949"
     inkscape:cx="6.7814384"
     inkscape:cy="8.2550971"
     inkscape:window-width="1920"
     inkscape:window-height="1129"
     inkscape:window-x="-8"
     inkscape:window-y="235"
     inkscape:window-maximized="1"
     inkscape:current-layer="layer1">
    <inkscape:grid
       id="grid1"
       units="px"
       originx="0"
       originy="0"
       spacingx="0.26458333"
       spacingy="0.26458333"
       empcolor="#0099e5"
       empopacity="0.30196078"
       color="#0099e5"
       opacity="0.14901961"
       empspacing="0"
       dotted="false"
       gridanglex="30"
       gridanglez="30"
       visible="true" />
  </sodipodi:namedview>
  <defs
     id="defs1" />
  <g
     inkscape:label="Layer 1"
     inkscape:groupmode="layer"
     id="layer1">
    <path
       id="rect28"
       style="stroke-width:0.264583"
       transform="rotate(-90)"
       d="m -0.79374981,3.4395833 h 0.52916664 V 3.9687499 H -0.79374981 Z M -1.0583332,3.1749997 h 0.52916668 V 3.7041664 H -1.0583332 Z m 0,0 h 0.52916668 V 3.7041664 H -1.0583332 Z M -1.3229165,2.9104166 h 0.52916663 V 3.4395832 H -1.3229165 Z M -1.5874999,2.6458335 h 0.5291667 V 3.1750001 H -1.5874999 Z M -1.8520832,2.3812499 h 0.5291666 V 2.9104165 H -1.8520832 Z M -2.1166666,2.1166668 h 0.5291667 V 2.6458334 H -2.1166666 Z M -2.3812499,1.8520833 h 0.5291666 V 2.38125 H -2.3812499 Z M -2.6458333,1.5875001 h 0.5291667 V 2.1166667 H -2.6458333 Z M -2.9104166,1.3229167 H -2.38125 V 1.8520834 H -2.9104166 Z M -3.1749997,1.0583334 h 0.5291666 V 1.5875 H -3.1749997 Z M -3.4395831,0.79375011 h 0.5291667 V 1.3229167 H -3.4395831 Z M -3.7041664,0.52916676 h 0.5291666 V 1.0583334 H -3.7041664 Z M -3.9687498,0.26458344 h 0.5291667 V 0.79375008 H -3.9687498 Z M -3.4395831,3.4395833 V 3.9687499 H -3.9687497 V 3.4395833 Z M -3.1749997,3.175 V 3.7041666 H -3.7041664 V 3.175 Z m 0,0 V 3.7041666 H -3.7041664 V 3.175 Z M -2.9104164,2.9104166 V 3.4395832 H -3.439583 V 2.9104166 Z M -2.6458333,2.6458333 V 3.1749999 H -3.1749999 V 2.6458333 Z M -2.3812499,2.3812499 V 2.9104165 H -2.9104165 V 2.3812499 Z M -2.1166666,2.1166666 V 2.6458332 H -2.6458332 V 2.1166666 Z M -1.8520832,1.8520833 V 2.38125 H -2.3812498 V 1.8520833 Z M -1.5875,1.5875 V 2.1166666 H -2.1166666 V 1.5875 Z M -1.3229166,1.3229166 V 1.8520833 H -1.8520833 V 1.3229166 Z M -1.0583333,1.0583334 V 1.5875 H -1.5874999 V 1.0583334 Z M -0.79374999,0.79375005 V 1.3229167 H -1.3229166 V 0.79375005 Z M -0.52916664,0.52916664 V 1.0583333 H -1.0583333 V 0.52916664 Z M -0.26458332,0.26458332 V 0.79374996 H -0.79374996 V 0.26458332 Z" />
  </g>
</svg>