<?xml version="1.0" encoding="UTF-8" standalone="no"?>
<!-- Created with Inkscape (http://www.inkscape.org/) -->

<svg
   width="32"
   height="32"
   viewBox="0 0 8.4666665 8.4666666"
   version="1.1"
   id="svg1"
   inkscape:version="1.3 (0e150ed6c4, 2023-07-21)"
   sodipodi:docname="pixel-x.svg"
   xmlns:inkscape="http://www.inkscape.org/namespaces/inkscape"
   xmlns:sodipodi="http://sodipodi.sourceforge.net/DTD/sodipodi-0.dtd"
   xmlns="http://www.w3.org/2000/svg"
   xmlns:svg="http://www.w3.org/2000/svg">
  <sodipodi:namedview
     id="namedview1"
     pagecolor="#505050"
     bordercolor="#eeeeee"
     borderopacity="1"
     inkscape:showpageshadow="0"
     inkscape:pageopacity="0"
     inkscape:pagecheckerboard="0"
     inkscape:deskcolor="#505050"
     inkscape:document-units="mm"
     showgrid="true"
     inkscape:zoom="24.007823"
     inkscape:cx="13.453948"
     inkscape:cy="14.932633"
     inkscape:window-width="2560"
     inkscape:window-height="1369"
     inkscape:window-x="1912"
     inkscape:window-y="-8"
     inkscape:window-maximized="1"
     inkscape:current-layer="layer1">
    <inkscape:grid
       id="grid1"
       units="px"
       originx="0"
       originy="0"
       spacingx="0.26458333"
       spacingy="0.26458333"
       empcolor="#0099e5"
       empopacity="0.30196078"
       color="#0099e5"
       opacity="0.14901961"
       empspacing="0"
       dotted="true"
       gridanglex="30"
       gridanglez="30"
       visible="true" />
  </sodipodi:namedview>
  <defs
     id="defs1">
    <inkscape:path-effect
       effect="bspline"
       id="path-effect2"
       is_visible="true"
       lpeversion="1.3"
       weight="33.333333"
       steps="2"
       helper_size="0"
       apply_no_weight="true"
       apply_with_weight="true"
       only_selected="false"
       uniform="false" />
    <inkscape:path-effect
       effect="bspline"
       id="path-effect1"
       is_visible="true"
       lpeversion="1.3"
       weight="33.333333"
       steps="2"
       helper_size="0"
       apply_no_weight="true"
       apply_with_weight="true"
       only_selected="false"
       uniform="false" />
    <filter
       inkscape:label="Pixellize"
       inkscape:menu="Pixel Tools"
       inkscape:menu-tooltip="Reduce or remove antialiasing around shapes"
       style="color-interpolation-filters:sRGB;"
       id="filter2"
       x="-0.025253816"
       y="-0.025253816"
       width="1.0505076"
       height="1.0505076">
      <feColorMatrix
         values="1 0 0 0 0 0 1 0 0 0 0 0 1 0 0 0 0 0 1000 -500 "
         id="feColorMatrix2"
         result="fbSourceGraphic" />
      <feColorMatrix
         result="fbSourceGraphicAlpha"
         in="fbSourceGraphic"
         values="0 0 0 -1 0 0 0 0 -1 0 0 0 0 -1 0 0 0 0 1 0"
         id="feColorMatrix3" />
      <feColorMatrix
         id="feColorMatrix4"
         values="1 0 0 0 0 0 1 0 0 0 0 0 1 0 0 0 0 0 1000 -500 "
         in="fbSourceGraphic"
         result="fbSourceGraphic" />
      <feColorMatrix
         result="fbSourceGraphicAlpha"
         in="fbSourceGraphic"
         values="0 0 0 -1 0 0 0 0 -1 0 0 0 0 -1 0 0 0 0 1 0"
         id="feColorMatrix5" />
      <feColorMatrix
         id="feColorMatrix6"
         values="1 0 0 0 0 0 1 0 0 0 0 0 1 0 0 0 0 0 1000 -500 "
         in="fbSourceGraphic"
         result="fbSourceGraphic" />
      <feColorMatrix
         result="fbSourceGraphicAlpha"
         in="fbSourceGraphic"
         values="0 0 0 -1 0 0 0 0 -1 0 0 0 0 -1 0 0 0 0 1 0"
         id="feColorMatrix7" />
      <feColorMatrix
         id="feColorMatrix8"
         values="1 0 0 0 0 0 1 0 0 0 0 0 1 0 0 0 0 0 1000 -500 "
         in="fbSourceGraphic" />
    </filter>
  </defs>
  <g
     inkscape:label="Layer 1"
     inkscape:groupmode="layer"
     id="layer1">
    <path
       id="rect70"
       style="stroke-width:0.26458333;stroke-dasharray:none;stroke:none;fill:#000000;fill-opacity:1"
       transform="rotate(90)"
       d="m 3.7041662,-4.7624998 h 1.0583336 v 1.0583334 H 3.7041662 Z M 3.4395833,-5.0270829 h 0.5291666 v 0.5291666 H 3.4395833 Z m 3.9687495,3.9687495 h 0.5291667 v 0.52916664 H 7.4083328 Z M 7.1437492,-1.3229165 h 0.5291667 v 0.52916663 H 7.1437492 Z M 6.8791661,-1.5874996 H 7.4083328 V -1.058333 H 6.8791661 Z M 6.614583,-1.8520832 h 0.5291667 v 0.5291666 H 6.614583 Z M 6.3499994,-2.1166668 h 0.5291667 v 0.5291666 H 6.3499994 Z M 6.0854158,-2.3812499 h 0.5291667 v 0.5291666 H 6.0854158 Z M 5.8208327,-2.645833 h 0.5291667 v 0.5291666 H 5.8208327 Z M 5.5562496,-2.9104166 H 6.0854163 V -2.38125 H 5.5562496 Z M 5.291666,-3.1750002 h 0.5291667 v 0.5291666 H 5.291666 Z M 5.0270824,-3.4395833 h 0.5291667 v 0.5291666 H 5.0270824 Z M 4.7624993,-3.7041664 H 5.291666 v 0.5291666 H 4.7624993 Z M 4.4979167,-3.9687495 h 0.5291666 v 0.5291666 H 4.4979167 Z M 3.4395833,-5.0270829 h 0.5291666 v 0.5291666 H 3.4395833 Z M 3.1749997,-5.2916665 h 0.5291667 v 0.5291666 H 3.1749997 Z M 2.9104164,-5.5562496 H 3.439583 V -5.027083 H 2.9104164 Z M 2.645833,-5.8208327 h 0.5291667 v 0.5291666 H 2.645833 Z M 2.3812499,-6.0854163 h 0.5291666 v 0.5291666 H 2.3812499 Z M 2.1166663,-6.3499994 H 2.645833 v 0.5291666 H 2.1166663 Z M 1.852083,-6.614583 h 0.5291666 v 0.5291666 H 1.852083 Z M 1.5874996,-6.8791661 h 0.5291667 v 0.5291666 H 1.5874996 Z M 1.3229167,-7.1437497 h 0.5291667 v 0.5291666 H 1.3229167 Z M 1.0583333,-7.4083328 h 0.5291666 v 0.5291666 H 1.0583333 Z M 0.79374999,-7.6729164 H 1.3229166 v 0.5291666 H 0.79374999 Z M 0.52916664,-7.9374995 H 1.0583333 v 0.5291666 H 0.52916664 Z m 6.87916616,0.5291667 v -0.5291667 h 0.5291667 v 0.5291667 z m -0.2645831,0.2645836 v -0.5291667 h 0.5291667 v 0.5291667 z m -0.2645831,0.2645831 v -0.5291667 h 0.5291666 v 0.5291667 z M 6.614583,-6.614583 v -0.5291667 h 0.5291667 v 0.5291667 z m -0.2645836,0.2645836 v -0.5291667 h 0.5291667 v 0.5291667 z M 6.0854163,-6.0854158 V -6.6145825 H 6.614583 v 0.5291667 z m -0.2645831,0.2645831 v -0.5291667 h 0.5291666 v 0.5291667 z m -0.2645836,0.2645831 v -0.5291667 h 0.5291667 v 0.5291667 z M 5.291666,-5.291666 v -0.5291667 h 0.5291667 v 0.5291667 z m -0.2645831,0.2645836 v -0.5291667 h 0.5291667 v 0.5291667 z M 4.7624998,-4.7624993 V -5.291666 h 0.5291666 v 0.5291667 z m -0.2645831,0.2645826 v -0.5291666 h 0.5291666 v 0.5291666 z m -1.0583336,1.0583334 v -0.5291666 h 0.5291666 v 0.5291666 z m -0.2645834,0.2645836 v -0.5291667 h 0.5291667 v 0.5291667 z M 2.9104166,-2.9104164 V -3.439583 h 0.5291666 v 0.5291666 z M 2.6458333,-2.645833 v -0.5291667 h 0.5291666 v 0.5291667 z m -0.2645834,0.2645831 v -0.5291666 h 0.5291666 v 0.5291666 z M 2.1166666,-2.1166663 V -2.645833 h 0.5291666 v 0.5291667 z M 1.8520833,-1.8520831 V -2.3812497 H 2.38125 v 0.5291666 z M 1.5875,-1.5874997 v -0.5291667 h 0.5291666 v 0.5291667 z m -0.2645834,0.264583 v -0.5291667 h 0.5291667 v 0.5291667 z m -0.2645833,0.2645834 v -0.5291666 h 0.5291666 v 0.5291666 z M 0.79374999,-0.79374999 V -1.3229166 H 1.3229166 v 0.52916661 z M 0.52916664,-0.52916664 V -1.0583333 H 1.0583333 v 0.52916666 z" />
  </g>
</svg>